<?xml version="1.0" encoding="UTF-8" standalone="no"?>
<!DOCTYPE svg PUBLIC "-//W3C//DTD SVG 1.1//EN"
 "http://www.w3.org/Graphics/SVG/1.1/DTD/svg11.dtd">
<!-- Generated by graphviz version 2.50.0 (0)
 -->
<!-- Title: snakemake_dag Pages: 1 -->
<svg width="694pt" height="708pt"
 viewBox="0.00 0.00 694.00 708.00" xmlns="http://www.w3.org/2000/svg" xmlns:xlink="http://www.w3.org/1999/xlink">
<g id="graph0" class="graph" transform="scale(1 1) rotate(0) translate(4 704)">
<title>snakemake_dag</title>
<polygon fill="white" stroke="transparent" points="-4,4 -4,-704 690,-704 690,4 -4,4"/>
<!-- 0 -->
<g id="node1" class="node">
<title>0</title>
<path fill="none" stroke="#80d856" stroke-width="2" d="M367,-36C367,-36 337,-36 337,-36 331,-36 325,-30 325,-24 325,-24 325,-12 325,-12 325,-6 331,0 337,0 337,0 367,0 367,0 373,0 379,-6 379,-12 379,-12 379,-24 379,-24 379,-30 373,-36 367,-36"/>
<text text-anchor="middle" x="352" y="-15.5" font-family="sans" font-size="10.00">all</text>
</g>
<!-- 1 -->
<g id="node2" class="node">
<title>1</title>
<path fill="none" stroke="#d8c356" stroke-width="2" d="M246,-108C246,-108 178,-108 178,-108 172,-108 166,-102 166,-96 166,-96 166,-84 166,-84 166,-78 172,-72 178,-72 178,-72 246,-72 246,-72 252,-72 258,-78 258,-84 258,-84 258,-96 258,-96 258,-102 252,-108 246,-108"/>
<text text-anchor="middle" x="212" y="-87.5" font-family="sans" font-size="10.00">pigeon_process</text>
</g>
<!-- 1&#45;&gt;0 -->
<g id="edge1" class="edge">
<title>1&#45;&gt;0</title>
<path fill="none" stroke="grey" stroke-width="2" d="M246.25,-71.88C267.26,-61.37 294.15,-47.92 315.56,-37.22"/>
<polygon fill="grey" stroke="grey" stroke-width="2" points="317.28,-40.27 324.66,-32.67 314.15,-34.01 317.28,-40.27"/>
</g>
<!-- 2 -->
<g id="node3" class="node">
<title>2</title>
<path fill="none" stroke="#97d856" stroke-width="2" d="M191.5,-180C191.5,-180 158.5,-180 158.5,-180 152.5,-180 146.5,-174 146.5,-168 146.5,-168 146.5,-156 146.5,-156 146.5,-150 152.5,-144 158.5,-144 158.5,-144 191.5,-144 191.5,-144 197.5,-144 203.5,-150 203.5,-156 203.5,-156 203.5,-168 203.5,-168 203.5,-174 197.5,-180 191.5,-180"/>
<text text-anchor="middle" x="175" y="-159.5" font-family="sans" font-size="10.00">collapse</text>
</g>
<!-- 2&#45;&gt;1 -->
<g id="edge6" class="edge">
<title>2&#45;&gt;1</title>
<path fill="none" stroke="grey" stroke-width="2" d="M184.15,-143.7C188.4,-135.64 193.56,-125.89 198.27,-116.98"/>
<polygon fill="grey" stroke="grey" stroke-width="2" points="201.38,-118.58 202.96,-108.1 195.19,-115.31 201.38,-118.58"/>
</g>
<!-- 3 -->
<g id="node4" class="node">
<title>3</title>
<path fill="none" stroke="#56d882" stroke-width="2" d="M206.5,-252C206.5,-252 123.5,-252 123.5,-252 117.5,-252 111.5,-246 111.5,-240 111.5,-240 111.5,-228 111.5,-228 111.5,-222 117.5,-216 123.5,-216 123.5,-216 206.5,-216 206.5,-216 212.5,-216 218.5,-222 218.5,-228 218.5,-228 218.5,-240 218.5,-240 218.5,-246 212.5,-252 206.5,-252"/>
<text text-anchor="middle" x="165" y="-231.5" font-family="sans" font-size="10.00">merge_all_aligned</text>
</g>
<!-- 3&#45;&gt;2 -->
<g id="edge7" class="edge">
<title>3&#45;&gt;2</title>
<path fill="none" stroke="grey" stroke-width="2" d="M167.47,-215.7C168.57,-207.98 169.9,-198.71 171.13,-190.11"/>
<polygon fill="grey" stroke="grey" stroke-width="2" points="174.61,-190.5 172.56,-180.1 167.68,-189.51 174.61,-190.5"/>
</g>
<!-- 4 -->
<g id="node5" class="node">
<title>4</title>
<path fill="none" stroke="#56d89a" stroke-width="2" d="M86,-324C86,-324 12,-324 12,-324 6,-324 0,-318 0,-312 0,-312 0,-300 0,-300 0,-294 6,-288 12,-288 12,-288 86,-288 86,-288 92,-288 98,-294 98,-300 98,-300 98,-312 98,-312 98,-318 92,-324 86,-324"/>
<text text-anchor="middle" x="49" y="-303.5" font-family="sans" font-size="10.00">label_transcripts</text>
</g>
<!-- 4&#45;&gt;3 -->
<g id="edge8" class="edge">
<title>4&#45;&gt;3</title>
<path fill="none" stroke="grey" stroke-width="2" d="M77.38,-287.88C92.54,-278.72 111.41,-267.34 127.74,-257.48"/>
<polygon fill="grey" stroke="grey" stroke-width="2" points="129.76,-260.35 136.51,-252.19 126.14,-254.36 129.76,-260.35"/>
</g>
<!-- 5 -->
<g id="node6" class="node">
<title>5</title>
<path fill="none" stroke="#56a9d8" stroke-width="2" d="M64,-396C64,-396 34,-396 34,-396 28,-396 22,-390 22,-384 22,-384 22,-372 22,-372 22,-366 28,-360 34,-360 34,-360 64,-360 64,-360 70,-360 76,-366 76,-372 76,-372 76,-384 76,-384 76,-390 70,-396 64,-396"/>
<text text-anchor="middle" x="49" y="-375.5" font-family="sans" font-size="10.00">align</text>
</g>
<!-- 5&#45;&gt;4 -->
<g id="edge10" class="edge">
<title>5&#45;&gt;4</title>
<path fill="none" stroke="grey" stroke-width="2" d="M49,-359.7C49,-351.98 49,-342.71 49,-334.11"/>
<polygon fill="grey" stroke="grey" stroke-width="2" points="52.5,-334.1 49,-324.1 45.5,-334.1 52.5,-334.1"/>
</g>
<!-- 6 -->
<g id="node7" class="node">
<title>6</title>
<path fill="none" stroke="#56c1d8" stroke-width="2" d="M64,-468C64,-468 34,-468 34,-468 28,-468 22,-462 22,-456 22,-456 22,-444 22,-444 22,-438 28,-432 34,-432 34,-432 64,-432 64,-432 70,-432 76,-438 76,-444 76,-444 76,-456 76,-456 76,-462 70,-468 64,-468"/>
<text text-anchor="middle" x="49" y="-447.5" font-family="sans" font-size="10.00">cluster</text>
</g>
<!-- 6&#45;&gt;5 -->
<g id="edge11" class="edge">
<title>6&#45;&gt;5</title>
<path fill="none" stroke="grey" stroke-width="2" d="M49,-431.7C49,-423.98 49,-414.71 49,-406.11"/>
<polygon fill="grey" stroke="grey" stroke-width="2" points="52.5,-406.1 49,-396.1 45.5,-406.1 52.5,-406.1"/>
</g>
<!-- 7 -->
<g id="node8" class="node">
<title>7</title>
<path fill="none" stroke="#d85656" stroke-width="2" d="M110.5,-540C110.5,-540 39.5,-540 39.5,-540 33.5,-540 27.5,-534 27.5,-528 27.5,-528 27.5,-516 27.5,-516 27.5,-510 33.5,-504 39.5,-504 39.5,-504 110.5,-504 110.5,-504 116.5,-504 122.5,-510 122.5,-516 122.5,-516 122.5,-528 122.5,-528 122.5,-534 116.5,-540 110.5,-540"/>
<text text-anchor="middle" x="75" y="-519.5" font-family="sans" font-size="10.00">merge_samples</text>
</g>
<!-- 7&#45;&gt;6 -->
<g id="edge12" class="edge">
<title>7&#45;&gt;6</title>
<path fill="none" stroke="grey" stroke-width="2" d="M68.57,-503.7C65.64,-495.81 62.11,-486.3 58.86,-477.55"/>
<polygon fill="grey" stroke="grey" stroke-width="2" points="62.12,-476.26 55.35,-468.1 55.55,-478.7 62.12,-476.26"/>
</g>
<!-- 8 -->
<g id="node9" class="node">
<title>8</title>
<path fill="none" stroke="#5673d8" stroke-width="2" d="M139.5,-612C139.5,-612 14.5,-612 14.5,-612 8.5,-612 2.5,-606 2.5,-600 2.5,-600 2.5,-588 2.5,-588 2.5,-582 8.5,-576 14.5,-576 14.5,-576 139.5,-576 139.5,-576 145.5,-576 151.5,-582 151.5,-588 151.5,-588 151.5,-600 151.5,-600 151.5,-606 145.5,-612 139.5,-612"/>
<text text-anchor="middle" x="77" y="-591.5" font-family="sans" font-size="10.00">label_reads_with_condition</text>
</g>
<!-- 8&#45;&gt;7 -->
<g id="edge13" class="edge">
<title>8&#45;&gt;7</title>
<path fill="none" stroke="grey" stroke-width="2" d="M76.51,-575.7C76.29,-567.98 76.02,-558.71 75.77,-550.11"/>
<polygon fill="grey" stroke="grey" stroke-width="2" points="79.27,-550 75.49,-540.1 72.28,-550.2 79.27,-550"/>
</g>
<!-- 23 -->
<g id="node24" class="node">
<title>23</title>
<path fill="none" stroke="#d87556" stroke-width="2" d="M211,-540C211,-540 153,-540 153,-540 147,-540 141,-534 141,-528 141,-528 141,-516 141,-516 141,-510 147,-504 153,-504 153,-504 211,-504 211,-504 217,-504 223,-510 223,-516 223,-516 223,-528 223,-528 223,-534 217,-540 211,-540"/>
<text text-anchor="middle" x="182" y="-519.5" font-family="sans" font-size="10.00">align_sample</text>
</g>
<!-- 8&#45;&gt;23 -->
<g id="edge27" class="edge">
<title>8&#45;&gt;23</title>
<path fill="none" stroke="grey" stroke-width="2" d="M102.69,-575.88C116.29,-566.81 133.17,-555.55 147.86,-545.76"/>
<polygon fill="grey" stroke="grey" stroke-width="2" points="149.84,-548.65 156.22,-540.19 145.95,-542.82 149.84,-548.65"/>
</g>
<!-- 9 -->
<g id="node10" class="node">
<title>9</title>
<path fill="none" stroke="#d8ac56" stroke-width="2" stroke-dasharray="5,2" d="M141,-700C141,-700 13,-700 13,-700 7,-700 1,-694 1,-688 1,-688 1,-660 1,-660 1,-654 7,-648 13,-648 13,-648 141,-648 141,-648 147,-648 153,-654 153,-660 153,-660 153,-688 153,-688 153,-694 147,-700 141,-700"/>
<text text-anchor="middle" x="77" y="-688" font-family="sans" font-size="10.00">merge_individual_condition</text>
<text text-anchor="middle" x="77" y="-677" font-family="sans" font-size="10.00">condition: treated</text>
<text text-anchor="middle" x="77" y="-666" font-family="sans" font-size="10.00">individual: UDN052264</text>
<text text-anchor="middle" x="77" y="-655" font-family="sans" font-size="10.00">label: cyclo_PS00367</text>
</g>
<!-- 9&#45;&gt;8 -->
<g id="edge15" class="edge">
<title>9&#45;&gt;8</title>
<path fill="none" stroke="grey" stroke-width="2" d="M77,-647.89C77,-639.84 77,-630.88 77,-622.66"/>
<polygon fill="grey" stroke="grey" stroke-width="2" points="80.5,-622.41 77,-612.41 73.5,-622.41 80.5,-622.41"/>
</g>
<!-- 10 -->
<g id="node11" class="node">
<title>10</title>
<path fill="none" stroke="#5673d8" stroke-width="2" d="M322.5,-612C322.5,-612 197.5,-612 197.5,-612 191.5,-612 185.5,-606 185.5,-600 185.5,-600 185.5,-588 185.5,-588 185.5,-582 191.5,-576 197.5,-576 197.5,-576 322.5,-576 322.5,-576 328.5,-576 334.5,-582 334.5,-588 334.5,-588 334.5,-600 334.5,-600 334.5,-606 328.5,-612 322.5,-612"/>
<text text-anchor="middle" x="260" y="-591.5" font-family="sans" font-size="10.00">label_reads_with_condition</text>
</g>
<!-- 10&#45;&gt;7 -->
<g id="edge14" class="edge">
<title>10&#45;&gt;7</title>
<path fill="none" stroke="grey" stroke-width="2" d="M214.74,-575.88C189,-566.14 156.59,-553.87 129.46,-543.61"/>
<polygon fill="grey" stroke="grey" stroke-width="2" points="130.7,-540.33 120.11,-540.07 128.22,-546.88 130.7,-540.33"/>
</g>
<!-- 26 -->
<g id="node27" class="node">
<title>26</title>
<path fill="none" stroke="#d87556" stroke-width="2" d="M311,-540C311,-540 253,-540 253,-540 247,-540 241,-534 241,-528 241,-528 241,-516 241,-516 241,-510 247,-504 253,-504 253,-504 311,-504 311,-504 317,-504 323,-510 323,-516 323,-516 323,-528 323,-528 323,-534 317,-540 311,-540"/>
<text text-anchor="middle" x="282" y="-519.5" font-family="sans" font-size="10.00">align_sample</text>
</g>
<!-- 10&#45;&gt;26 -->
<g id="edge31" class="edge">
<title>10&#45;&gt;26</title>
<path fill="none" stroke="grey" stroke-width="2" d="M265.44,-575.7C267.89,-567.9 270.84,-558.51 273.57,-549.83"/>
<polygon fill="grey" stroke="grey" stroke-width="2" points="276.96,-550.69 276.62,-540.1 270.29,-548.59 276.96,-550.69"/>
</g>
<!-- 11 -->
<g id="node12" class="node">
<title>11</title>
<path fill="none" stroke="#d8ac56" stroke-width="2" d="M324,-700C324,-700 196,-700 196,-700 190,-700 184,-694 184,-688 184,-688 184,-660 184,-660 184,-654 190,-648 196,-648 196,-648 324,-648 324,-648 330,-648 336,-654 336,-660 336,-660 336,-688 336,-688 336,-694 330,-700 324,-700"/>
<text text-anchor="middle" x="260" y="-688" font-family="sans" font-size="10.00">merge_individual_condition</text>
<text text-anchor="middle" x="260" y="-677" font-family="sans" font-size="10.00">condition: untreated</text>
<text text-anchor="middle" x="260" y="-666" font-family="sans" font-size="10.00">individual: UDN052264</text>
<text text-anchor="middle" x="260" y="-655" font-family="sans" font-size="10.00">label: non&#45;cyclo_PS00366</text>
</g>
<!-- 11&#45;&gt;10 -->
<g id="edge16" class="edge">
<title>11&#45;&gt;10</title>
<path fill="none" stroke="grey" stroke-width="2" d="M260,-647.89C260,-639.84 260,-630.88 260,-622.66"/>
<polygon fill="grey" stroke="grey" stroke-width="2" points="263.5,-622.41 260,-612.41 256.5,-622.41 263.5,-622.41"/>
</g>
<!-- 12 -->
<g id="node13" class="node">
<title>12</title>
<path fill="none" stroke="#56d89a" stroke-width="2" d="M202,-324C202,-324 128,-324 128,-324 122,-324 116,-318 116,-312 116,-312 116,-300 116,-300 116,-294 122,-288 128,-288 128,-288 202,-288 202,-288 208,-288 214,-294 214,-300 214,-300 214,-312 214,-312 214,-318 208,-324 202,-324"/>
<text text-anchor="middle" x="165" y="-303.5" font-family="sans" font-size="10.00">label_transcripts</text>
</g>
<!-- 12&#45;&gt;3 -->
<g id="edge9" class="edge">
<title>12&#45;&gt;3</title>
<path fill="none" stroke="grey" stroke-width="2" d="M165,-287.7C165,-279.98 165,-270.71 165,-262.11"/>
<polygon fill="grey" stroke="grey" stroke-width="2" points="168.5,-262.1 165,-252.1 161.5,-262.1 168.5,-262.1"/>
</g>
<!-- 13 -->
<g id="node14" class="node">
<title>13</title>
<path fill="none" stroke="#56a9d8" stroke-width="2" d="M136,-396C136,-396 106,-396 106,-396 100,-396 94,-390 94,-384 94,-384 94,-372 94,-372 94,-366 100,-360 106,-360 106,-360 136,-360 136,-360 142,-360 148,-366 148,-372 148,-372 148,-384 148,-384 148,-390 142,-396 136,-396"/>
<text text-anchor="middle" x="121" y="-375.5" font-family="sans" font-size="10.00">align</text>
</g>
<!-- 13&#45;&gt;12 -->
<g id="edge17" class="edge">
<title>13&#45;&gt;12</title>
<path fill="none" stroke="grey" stroke-width="2" d="M131.88,-359.7C136.99,-351.56 143.2,-341.69 148.84,-332.7"/>
<polygon fill="grey" stroke="grey" stroke-width="2" points="151.89,-334.43 154.25,-324.1 145.96,-330.71 151.89,-334.43"/>
</g>
<!-- 14 -->
<g id="node15" class="node">
<title>14</title>
<path fill="none" stroke="#56c1d8" stroke-width="2" d="M136,-468C136,-468 106,-468 106,-468 100,-468 94,-462 94,-456 94,-456 94,-444 94,-444 94,-438 100,-432 106,-432 106,-432 136,-432 136,-432 142,-432 148,-438 148,-444 148,-444 148,-456 148,-456 148,-462 142,-468 136,-468"/>
<text text-anchor="middle" x="121" y="-447.5" font-family="sans" font-size="10.00">cluster</text>
</g>
<!-- 14&#45;&gt;13 -->
<g id="edge18" class="edge">
<title>14&#45;&gt;13</title>
<path fill="none" stroke="grey" stroke-width="2" d="M121,-431.7C121,-423.98 121,-414.71 121,-406.11"/>
<polygon fill="grey" stroke="grey" stroke-width="2" points="124.5,-406.1 121,-396.1 117.5,-406.1 124.5,-406.1"/>
</g>
<!-- 15 -->
<g id="node16" class="node">
<title>15</title>
<path fill="none" stroke="#d85656" stroke-width="2" d="M440.5,-540C440.5,-540 369.5,-540 369.5,-540 363.5,-540 357.5,-534 357.5,-528 357.5,-528 357.5,-516 357.5,-516 357.5,-510 363.5,-504 369.5,-504 369.5,-504 440.5,-504 440.5,-504 446.5,-504 452.5,-510 452.5,-516 452.5,-516 452.5,-528 452.5,-528 452.5,-534 446.5,-540 440.5,-540"/>
<text text-anchor="middle" x="405" y="-519.5" font-family="sans" font-size="10.00">merge_samples</text>
</g>
<!-- 15&#45;&gt;14 -->
<g id="edge19" class="edge">
<title>15&#45;&gt;14</title>
<path fill="none" stroke="grey" stroke-width="2" d="M357.13,-509.67C348.76,-507.74 340.13,-505.78 332,-504 257.47,-487.66 234.14,-492.69 157.82,-467.86"/>
<polygon fill="grey" stroke="grey" stroke-width="2" points="158.83,-464.51 148.24,-464.69 156.63,-471.16 158.83,-464.51"/>
</g>
<!-- 16 -->
<g id="node17" class="node">
<title>16</title>
<path fill="none" stroke="#5673d8" stroke-width="2" d="M499.5,-612C499.5,-612 374.5,-612 374.5,-612 368.5,-612 362.5,-606 362.5,-600 362.5,-600 362.5,-588 362.5,-588 362.5,-582 368.5,-576 374.5,-576 374.5,-576 499.5,-576 499.5,-576 505.5,-576 511.5,-582 511.5,-588 511.5,-588 511.5,-600 511.5,-600 511.5,-606 505.5,-612 499.5,-612"/>
<text text-anchor="middle" x="437" y="-591.5" font-family="sans" font-size="10.00">label_reads_with_condition</text>
</g>
<!-- 16&#45;&gt;15 -->
<g id="edge20" class="edge">
<title>16&#45;&gt;15</title>
<path fill="none" stroke="grey" stroke-width="2" d="M429.09,-575.7C425.45,-567.73 421.05,-558.1 417.01,-549.26"/>
<polygon fill="grey" stroke="grey" stroke-width="2" points="420.16,-547.74 412.82,-540.1 413.79,-550.65 420.16,-547.74"/>
</g>
<!-- 29 -->
<g id="node30" class="node">
<title>29</title>
<path fill="none" stroke="#d87556" stroke-width="2" d="M541,-540C541,-540 483,-540 483,-540 477,-540 471,-534 471,-528 471,-528 471,-516 471,-516 471,-510 477,-504 483,-504 483,-504 541,-504 541,-504 547,-504 553,-510 553,-516 553,-516 553,-528 553,-528 553,-534 547,-540 541,-540"/>
<text text-anchor="middle" x="512" y="-519.5" font-family="sans" font-size="10.00">align_sample</text>
</g>
<!-- 16&#45;&gt;29 -->
<g id="edge35" class="edge">
<title>16&#45;&gt;29</title>
<path fill="none" stroke="grey" stroke-width="2" d="M455.54,-575.7C464.8,-567.05 476.16,-556.45 486.26,-547.03"/>
<polygon fill="grey" stroke="grey" stroke-width="2" points="488.75,-549.49 493.67,-540.1 483.98,-544.37 488.75,-549.49"/>
</g>
<!-- 17 -->
<g id="node18" class="node">
<title>17</title>
<path fill="none" stroke="#d8ac56" stroke-width="2" d="M501,-700C501,-700 373,-700 373,-700 367,-700 361,-694 361,-688 361,-688 361,-660 361,-660 361,-654 367,-648 373,-648 373,-648 501,-648 501,-648 507,-648 513,-654 513,-660 513,-660 513,-688 513,-688 513,-694 507,-700 501,-700"/>
<text text-anchor="middle" x="437" y="-688" font-family="sans" font-size="10.00">merge_individual_condition</text>
<text text-anchor="middle" x="437" y="-677" font-family="sans" font-size="10.00">condition: treated</text>
<text text-anchor="middle" x="437" y="-666" font-family="sans" font-size="10.00">individual: BCH_2410&#45;01</text>
<text text-anchor="middle" x="437" y="-655" font-family="sans" font-size="10.00">label: cyclo_PS00393</text>
</g>
<!-- 17&#45;&gt;16 -->
<g id="edge22" class="edge">
<title>17&#45;&gt;16</title>
<path fill="none" stroke="grey" stroke-width="2" d="M437,-647.89C437,-639.84 437,-630.88 437,-622.66"/>
<polygon fill="grey" stroke="grey" stroke-width="2" points="440.5,-622.41 437,-612.41 433.5,-622.41 440.5,-622.41"/>
</g>
<!-- 18 -->
<g id="node19" class="node">
<title>18</title>
<path fill="none" stroke="#5673d8" stroke-width="2" d="M672.5,-612C672.5,-612 547.5,-612 547.5,-612 541.5,-612 535.5,-606 535.5,-600 535.5,-600 535.5,-588 535.5,-588 535.5,-582 541.5,-576 547.5,-576 547.5,-576 672.5,-576 672.5,-576 678.5,-576 684.5,-582 684.5,-588 684.5,-588 684.5,-600 684.5,-600 684.5,-606 678.5,-612 672.5,-612"/>
<text text-anchor="middle" x="610" y="-591.5" font-family="sans" font-size="10.00">label_reads_with_condition</text>
</g>
<!-- 18&#45;&gt;15 -->
<g id="edge21" class="edge">
<title>18&#45;&gt;15</title>
<path fill="none" stroke="grey" stroke-width="2" d="M560.11,-575.97C530.6,-565.89 493.1,-553.08 462.36,-542.59"/>
<polygon fill="grey" stroke="grey" stroke-width="2" points="463.23,-539.19 452.64,-539.27 460.97,-545.81 463.23,-539.19"/>
</g>
<!-- 32 -->
<g id="node33" class="node">
<title>32</title>
<path fill="none" stroke="#d87556" stroke-width="2" d="M641,-540C641,-540 583,-540 583,-540 577,-540 571,-534 571,-528 571,-528 571,-516 571,-516 571,-510 577,-504 583,-504 583,-504 641,-504 641,-504 647,-504 653,-510 653,-516 653,-516 653,-528 653,-528 653,-534 647,-540 641,-540"/>
<text text-anchor="middle" x="612" y="-519.5" font-family="sans" font-size="10.00">align_sample</text>
</g>
<!-- 18&#45;&gt;32 -->
<g id="edge39" class="edge">
<title>18&#45;&gt;32</title>
<path fill="none" stroke="grey" stroke-width="2" d="M610.49,-575.7C610.71,-567.98 610.98,-558.71 611.23,-550.11"/>
<polygon fill="grey" stroke="grey" stroke-width="2" points="614.72,-550.2 611.51,-540.1 607.73,-550 614.72,-550.2"/>
</g>
<!-- 19 -->
<g id="node20" class="node">
<title>19</title>
<path fill="none" stroke="#d8ac56" stroke-width="2" stroke-dasharray="5,2" d="M674,-700C674,-700 546,-700 546,-700 540,-700 534,-694 534,-688 534,-688 534,-660 534,-660 534,-654 540,-648 546,-648 546,-648 674,-648 674,-648 680,-648 686,-654 686,-660 686,-660 686,-688 686,-688 686,-694 680,-700 674,-700"/>
<text text-anchor="middle" x="610" y="-688" font-family="sans" font-size="10.00">merge_individual_condition</text>
<text text-anchor="middle" x="610" y="-677" font-family="sans" font-size="10.00">condition: untreated</text>
<text text-anchor="middle" x="610" y="-666" font-family="sans" font-size="10.00">individual: BCH_2410&#45;01</text>
<text text-anchor="middle" x="610" y="-655" font-family="sans" font-size="10.00">label: non&#45;cyclo_PS00394</text>
</g>
<!-- 19&#45;&gt;18 -->
<g id="edge23" class="edge">
<title>19&#45;&gt;18</title>
<path fill="none" stroke="grey" stroke-width="2" d="M610,-647.89C610,-639.84 610,-630.88 610,-622.66"/>
<polygon fill="grey" stroke="grey" stroke-width="2" points="613.5,-622.41 610,-612.41 606.5,-622.41 613.5,-622.41"/>
</g>
<!-- 20 -->
<g id="node21" class="node">
<title>20</title>
<path fill="none" stroke="#56d8d0" stroke-width="2" d="M266,-396C266,-396 178,-396 178,-396 172,-396 166,-390 166,-384 166,-384 166,-372 166,-372 166,-366 172,-360 178,-360 178,-360 266,-360 266,-360 272,-360 278,-366 278,-372 278,-372 278,-384 278,-384 278,-390 272,-396 266,-396"/>
<text text-anchor="middle" x="222" y="-375.5" font-family="sans" font-size="10.00">whatshap_haplotag</text>
</g>
<!-- 20&#45;&gt;0 -->
<g id="edge2" class="edge">
<title>20&#45;&gt;0</title>
<path fill="none" stroke="grey" stroke-width="2" d="M240.42,-359.64C264.87,-334.62 305,-285.83 305,-235 305,-235 305,-235 305,-161 305,-118.96 323.8,-73.29 337.62,-45.41"/>
<polygon fill="grey" stroke="grey" stroke-width="2" points="340.83,-46.82 342.26,-36.32 334.6,-43.63 340.83,-46.82"/>
</g>
<!-- 21 -->
<g id="node22" class="node">
<title>21</title>
<path fill="none" stroke="#568ad8" stroke-width="2" d="M457.5,-468C457.5,-468 344.5,-468 344.5,-468 338.5,-468 332.5,-462 332.5,-456 332.5,-456 332.5,-444 332.5,-444 332.5,-438 338.5,-432 344.5,-432 344.5,-432 457.5,-432 457.5,-432 463.5,-432 469.5,-438 469.5,-444 469.5,-444 469.5,-456 469.5,-456 469.5,-462 463.5,-468 457.5,-468"/>
<text text-anchor="middle" x="401" y="-453" font-family="sans" font-size="10.00">modify_vcf</text>
<text text-anchor="middle" x="401" y="-442" font-family="sans" font-size="10.00">individual: BCH_2410&#45;01</text>
</g>
<!-- 21&#45;&gt;20 -->
<g id="edge24" class="edge">
<title>21&#45;&gt;20</title>
<path fill="none" stroke="grey" stroke-width="2" d="M357.21,-431.88C332.42,-422.18 301.22,-409.98 275.04,-399.74"/>
<polygon fill="grey" stroke="grey" stroke-width="2" points="276.23,-396.45 265.65,-396.07 273.68,-402.97 276.23,-396.45"/>
</g>
<!-- 24 -->
<g id="node25" class="node">
<title>24</title>
<path fill="none" stroke="#56d8d0" stroke-width="2" d="M396,-396C396,-396 308,-396 308,-396 302,-396 296,-390 296,-384 296,-384 296,-372 296,-372 296,-366 302,-360 308,-360 308,-360 396,-360 396,-360 402,-360 408,-366 408,-372 408,-372 408,-384 408,-384 408,-390 402,-396 396,-396"/>
<text text-anchor="middle" x="352" y="-375.5" font-family="sans" font-size="10.00">whatshap_haplotag</text>
</g>
<!-- 21&#45;&gt;24 -->
<g id="edge28" class="edge">
<title>21&#45;&gt;24</title>
<path fill="none" stroke="grey" stroke-width="2" d="M388.89,-431.7C383.13,-423.47 376.14,-413.48 369.79,-404.42"/>
<polygon fill="grey" stroke="grey" stroke-width="2" points="372.58,-402.29 363.97,-396.1 366.84,-406.3 372.58,-402.29"/>
</g>
<!-- 27 -->
<g id="node28" class="node">
<title>27</title>
<path fill="none" stroke="#56d8d0" stroke-width="2" d="M526,-396C526,-396 438,-396 438,-396 432,-396 426,-390 426,-384 426,-384 426,-372 426,-372 426,-366 432,-360 438,-360 438,-360 526,-360 526,-360 532,-360 538,-366 538,-372 538,-372 538,-384 538,-384 538,-390 532,-396 526,-396"/>
<text text-anchor="middle" x="482" y="-375.5" font-family="sans" font-size="10.00">whatshap_haplotag</text>
</g>
<!-- 21&#45;&gt;27 -->
<g id="edge32" class="edge">
<title>21&#45;&gt;27</title>
<path fill="none" stroke="grey" stroke-width="2" d="M421.02,-431.7C431.13,-422.97 443.54,-412.24 454.52,-402.75"/>
<polygon fill="grey" stroke="grey" stroke-width="2" points="456.93,-405.29 462.21,-396.1 452.35,-399.99 456.93,-405.29"/>
</g>
<!-- 30 -->
<g id="node31" class="node">
<title>30</title>
<path fill="none" stroke="#56d8d0" stroke-width="2" d="M656,-396C656,-396 568,-396 568,-396 562,-396 556,-390 556,-384 556,-384 556,-372 556,-372 556,-366 562,-360 568,-360 568,-360 656,-360 656,-360 662,-360 668,-366 668,-372 668,-372 668,-384 668,-384 668,-390 662,-396 656,-396"/>
<text text-anchor="middle" x="612" y="-375.5" font-family="sans" font-size="10.00">whatshap_haplotag</text>
</g>
<!-- 21&#45;&gt;30 -->
<g id="edge36" class="edge">
<title>21&#45;&gt;30</title>
<path fill="none" stroke="grey" stroke-width="2" d="M452.35,-431.97C481.96,-422.14 519.37,-409.73 550.54,-399.39"/>
<polygon fill="grey" stroke="grey" stroke-width="2" points="552.03,-402.58 560.42,-396.11 549.83,-395.94 552.03,-402.58"/>
</g>
<!-- 22 -->
<g id="node23" class="node">
<title>22</title>
<path fill="none" stroke="#d88d56" stroke-width="2" d="M219.5,-468C219.5,-468 178.5,-468 178.5,-468 172.5,-468 166.5,-462 166.5,-456 166.5,-456 166.5,-444 166.5,-444 166.5,-438 172.5,-432 178.5,-432 178.5,-432 219.5,-432 219.5,-432 225.5,-432 231.5,-438 231.5,-444 231.5,-444 231.5,-456 231.5,-456 231.5,-462 225.5,-468 219.5,-468"/>
<text text-anchor="middle" x="199" y="-447.5" font-family="sans" font-size="10.00">modify_rg</text>
</g>
<!-- 22&#45;&gt;20 -->
<g id="edge25" class="edge">
<title>22&#45;&gt;20</title>
<path fill="none" stroke="grey" stroke-width="2" d="M204.69,-431.7C207.25,-423.9 210.33,-414.51 213.18,-405.83"/>
<polygon fill="grey" stroke="grey" stroke-width="2" points="216.58,-406.7 216.38,-396.1 209.93,-404.51 216.58,-406.7"/>
</g>
<!-- 23&#45;&gt;22 -->
<g id="edge26" class="edge">
<title>23&#45;&gt;22</title>
<path fill="none" stroke="grey" stroke-width="2" d="M186.2,-503.7C188.1,-495.9 190.38,-486.51 192.48,-477.83"/>
<polygon fill="grey" stroke="grey" stroke-width="2" points="195.89,-478.65 194.85,-468.1 189.08,-477 195.89,-478.65"/>
</g>
<!-- 24&#45;&gt;0 -->
<g id="edge3" class="edge">
<title>24&#45;&gt;0</title>
<path fill="none" stroke="grey" stroke-width="2" d="M352,-359.95C352,-333.29 352,-280.11 352,-235 352,-235 352,-235 352,-161 352,-121 352,-74.65 352,-46.08"/>
<polygon fill="grey" stroke="grey" stroke-width="2" points="355.5,-46.05 352,-36.05 348.5,-46.05 355.5,-46.05"/>
</g>
<!-- 25 -->
<g id="node26" class="node">
<title>25</title>
<path fill="none" stroke="#d88d56" stroke-width="2" d="M302.5,-468C302.5,-468 261.5,-468 261.5,-468 255.5,-468 249.5,-462 249.5,-456 249.5,-456 249.5,-444 249.5,-444 249.5,-438 255.5,-432 261.5,-432 261.5,-432 302.5,-432 302.5,-432 308.5,-432 314.5,-438 314.5,-444 314.5,-444 314.5,-456 314.5,-456 314.5,-462 308.5,-468 302.5,-468"/>
<text text-anchor="middle" x="282" y="-447.5" font-family="sans" font-size="10.00">modify_rg</text>
</g>
<!-- 25&#45;&gt;24 -->
<g id="edge29" class="edge">
<title>25&#45;&gt;24</title>
<path fill="none" stroke="grey" stroke-width="2" d="M299.3,-431.7C307.86,-423.14 318.34,-412.66 327.7,-403.3"/>
<polygon fill="grey" stroke="grey" stroke-width="2" points="330.3,-405.65 334.9,-396.1 325.35,-400.7 330.3,-405.65"/>
</g>
<!-- 26&#45;&gt;25 -->
<g id="edge30" class="edge">
<title>26&#45;&gt;25</title>
<path fill="none" stroke="grey" stroke-width="2" d="M282,-503.7C282,-495.98 282,-486.71 282,-478.11"/>
<polygon fill="grey" stroke="grey" stroke-width="2" points="285.5,-478.1 282,-468.1 278.5,-478.1 285.5,-478.1"/>
</g>
<!-- 27&#45;&gt;0 -->
<g id="edge4" class="edge">
<title>27&#45;&gt;0</title>
<path fill="none" stroke="grey" stroke-width="2" d="M472.47,-359.66C459,-333.47 436,-281.9 436,-235 436,-235 436,-235 436,-161 436,-114.6 402.36,-70.06 377.66,-43.6"/>
<polygon fill="grey" stroke="grey" stroke-width="2" points="380.1,-41.09 370.64,-36.31 375.05,-45.95 380.1,-41.09"/>
</g>
<!-- 28 -->
<g id="node29" class="node">
<title>28</title>
<path fill="none" stroke="#d88d56" stroke-width="2" d="M540.5,-468C540.5,-468 499.5,-468 499.5,-468 493.5,-468 487.5,-462 487.5,-456 487.5,-456 487.5,-444 487.5,-444 487.5,-438 493.5,-432 499.5,-432 499.5,-432 540.5,-432 540.5,-432 546.5,-432 552.5,-438 552.5,-444 552.5,-444 552.5,-456 552.5,-456 552.5,-462 546.5,-468 540.5,-468"/>
<text text-anchor="middle" x="520" y="-447.5" font-family="sans" font-size="10.00">modify_rg</text>
</g>
<!-- 28&#45;&gt;27 -->
<g id="edge33" class="edge">
<title>28&#45;&gt;27</title>
<path fill="none" stroke="grey" stroke-width="2" d="M510.61,-431.7C506.24,-423.64 500.94,-413.89 496.1,-404.98"/>
<polygon fill="grey" stroke="grey" stroke-width="2" points="499.13,-403.22 491.29,-396.1 492.98,-406.56 499.13,-403.22"/>
</g>
<!-- 29&#45;&gt;28 -->
<g id="edge34" class="edge">
<title>29&#45;&gt;28</title>
<path fill="none" stroke="grey" stroke-width="2" d="M513.98,-503.7C514.86,-495.98 515.92,-486.71 516.9,-478.11"/>
<polygon fill="grey" stroke="grey" stroke-width="2" points="520.39,-478.44 518.05,-468.1 513.43,-477.64 520.39,-478.44"/>
</g>
<!-- 30&#45;&gt;0 -->
<g id="edge5" class="edge">
<title>30&#45;&gt;0</title>
<path fill="none" stroke="grey" stroke-width="2" d="M602.47,-359.66C589,-333.47 566,-281.9 566,-235 566,-235 566,-235 566,-161 566,-77.12 450.44,-39.84 389.16,-25.97"/>
<polygon fill="grey" stroke="grey" stroke-width="2" points="389.62,-22.48 379.1,-23.79 388.14,-29.32 389.62,-22.48"/>
</g>
<!-- 31 -->
<g id="node32" class="node">
<title>31</title>
<path fill="none" stroke="#d88d56" stroke-width="2" d="M632.5,-468C632.5,-468 591.5,-468 591.5,-468 585.5,-468 579.5,-462 579.5,-456 579.5,-456 579.5,-444 579.5,-444 579.5,-438 585.5,-432 591.5,-432 591.5,-432 632.5,-432 632.5,-432 638.5,-432 644.5,-438 644.5,-444 644.5,-444 644.5,-456 644.5,-456 644.5,-462 638.5,-468 632.5,-468"/>
<text text-anchor="middle" x="612" y="-447.5" font-family="sans" font-size="10.00">modify_rg</text>
</g>
<!-- 31&#45;&gt;30 -->
<g id="edge37" class="edge">
<title>31&#45;&gt;30</title>
<path fill="none" stroke="grey" stroke-width="2" d="M612,-431.7C612,-423.98 612,-414.71 612,-406.11"/>
<polygon fill="grey" stroke="grey" stroke-width="2" points="615.5,-406.1 612,-396.1 608.5,-406.1 615.5,-406.1"/>
</g>
<!-- 32&#45;&gt;31 -->
<g id="edge38" class="edge">
<title>32&#45;&gt;31</title>
<path fill="none" stroke="grey" stroke-width="2" d="M612,-503.7C612,-495.98 612,-486.71 612,-478.11"/>
<polygon fill="grey" stroke="grey" stroke-width="2" points="615.5,-478.1 612,-468.1 608.5,-478.1 615.5,-478.1"/>
</g>
</g>
</svg>
