<?xml version="1.0" encoding="UTF-8" standalone="no"?>
<!DOCTYPE svg PUBLIC "-//W3C//DTD SVG 1.1//EN"
 "http://www.w3.org/Graphics/SVG/1.1/DTD/svg11.dtd">
<!-- Generated by graphviz version 12.0.0 (20240803.0821)
 -->
<!-- Title: snakemake_dag Pages: 1 -->
<svg width="512pt" height="931pt"
 viewBox="0.00 0.00 512.47 931.00" xmlns="http://www.w3.org/2000/svg" xmlns:xlink="http://www.w3.org/1999/xlink">
<g id="graph0" class="graph" transform="scale(1 1) rotate(0) translate(4 927)">
<title>snakemake_dag</title>
<polygon fill="white" stroke="none" points="-4,4 -4,-927 508.47,-927 508.47,4 -4,4"/>
<!-- 0 -->
<g id="node1" class="node">
<title>0</title>
<path fill="none" stroke="#d8d356" stroke-width="2" d="M269.47,-36C269.47,-36 239.47,-36 239.47,-36 233.47,-36 227.47,-30 227.47,-24 227.47,-24 227.47,-12 227.47,-12 227.47,-6 233.47,0 239.47,0 239.47,0 269.47,0 269.47,0 275.47,0 281.47,-6 281.47,-12 281.47,-12 281.47,-24 281.47,-24 281.47,-30 275.47,-36 269.47,-36"/>
<text text-anchor="middle" x="254.47" y="-14.88" font-family="sans" font-size="10.00">all</text>
</g>
<!-- 1 -->
<g id="node2" class="node">
<title>1</title>
<path fill="none" stroke="#56d0d8" stroke-width="2" d="M128.59,-180C128.59,-180 50.34,-180 50.34,-180 44.34,-180 38.34,-174 38.34,-168 38.34,-168 38.34,-156 38.34,-156 38.34,-150 44.34,-144 50.34,-144 50.34,-144 128.59,-144 128.59,-144 134.59,-144 140.59,-150 140.59,-156 140.59,-156 140.59,-168 140.59,-168 140.59,-174 134.59,-180 128.59,-180"/>
<text text-anchor="middle" x="89.47" y="-158.88" font-family="sans" font-size="10.00">add_tags_to_bam</text>
</g>
<!-- 1&#45;&gt;0 -->
<g id="edge1" class="edge">
<title>1&#45;&gt;0</title>
<path fill="none" stroke="grey" stroke-width="2" d="M84.85,-143.32C80.87,-123.81 77.95,-92.46 93.47,-72 121.54,-34.98 176.22,-23.46 214.02,-20.07"/>
<polygon fill="grey" stroke="grey" stroke-width="2" points="213.86,-23.59 223.59,-19.4 213.37,-16.61 213.86,-23.59"/>
</g>
<!-- 25 -->
<g id="node26" class="node">
<title>25</title>
<path fill="none" stroke="#56d8a9" stroke-width="2" d="M144.47,-108C144.47,-108 114.47,-108 114.47,-108 108.47,-108 102.47,-102 102.47,-96 102.47,-96 102.47,-84 102.47,-84 102.47,-78 108.47,-72 114.47,-72 114.47,-72 144.47,-72 144.47,-72 150.47,-72 156.47,-78 156.47,-84 156.47,-84 156.47,-96 156.47,-96 156.47,-102 150.47,-108 144.47,-108"/>
<text text-anchor="middle" x="129.47" y="-86.88" font-family="sans" font-size="10.00">qc_flnc</text>
</g>
<!-- 1&#45;&gt;25 -->
<g id="edge38" class="edge">
<title>1&#45;&gt;25</title>
<path fill="none" stroke="grey" stroke-width="2" d="M99.56,-143.34C103.6,-136.26 108.37,-127.92 112.89,-120"/>
<polygon fill="grey" stroke="grey" stroke-width="2" points="115.81,-121.95 117.73,-111.53 109.73,-118.48 115.81,-121.95"/>
</g>
<!-- 2 -->
<g id="node3" class="node">
<title>2</title>
<path fill="none" stroke="#afd856" stroke-width="2" d="M108.09,-396C108.09,-396 20.84,-396 20.84,-396 14.84,-396 8.84,-390 8.84,-384 8.84,-384 8.84,-372 8.84,-372 8.84,-366 14.84,-360 20.84,-360 20.84,-360 108.09,-360 108.09,-360 114.09,-360 120.09,-366 120.09,-372 120.09,-372 120.09,-384 120.09,-384 120.09,-390 114.09,-396 108.09,-396"/>
<text text-anchor="middle" x="64.47" y="-374.88" font-family="sans" font-size="10.00">whatshap_haplotag</text>
</g>
<!-- 2&#45;&gt;1 -->
<g id="edge9" class="edge">
<title>2&#45;&gt;1</title>
<path fill="none" stroke="grey" stroke-width="2" d="M34.94,-359.03C23.15,-350.11 10.86,-338.19 4.47,-324 -2.11,-309.41 -0.24,-303.29 4.47,-288 16.03,-250.42 43.18,-214.01 63.7,-190.28"/>
<polygon fill="grey" stroke="grey" stroke-width="2" points="66.26,-192.67 70.29,-182.87 61.03,-188.01 66.26,-192.67"/>
</g>
<!-- 17 -->
<g id="node18" class="node">
<title>17</title>
<path fill="none" stroke="#5673d8" stroke-width="2" d="M103.22,-324C103.22,-324 25.72,-324 25.72,-324 19.72,-324 13.72,-318 13.72,-312 13.72,-312 13.72,-300 13.72,-300 13.72,-294 19.72,-288 25.72,-288 25.72,-288 103.22,-288 103.22,-288 109.22,-288 115.22,-294 115.22,-300 115.22,-300 115.22,-312 115.22,-312 115.22,-318 109.22,-324 103.22,-324"/>
<text text-anchor="middle" x="64.47" y="-302.88" font-family="sans" font-size="10.00">extract_read_info</text>
</g>
<!-- 2&#45;&gt;17 -->
<g id="edge28" class="edge">
<title>2&#45;&gt;17</title>
<path fill="none" stroke="grey" stroke-width="2" d="M64.47,-359.34C64.47,-352.75 64.47,-345.08 64.47,-337.67"/>
<polygon fill="grey" stroke="grey" stroke-width="2" points="67.97,-337.93 64.47,-327.93 60.97,-337.93 67.97,-337.93"/>
</g>
<!-- 3 -->
<g id="node4" class="node">
<title>3</title>
<path fill="none" stroke="#56d8c9" stroke-width="2" d="M184.84,-540C184.84,-540 144.09,-540 144.09,-540 138.09,-540 132.09,-534 132.09,-528 132.09,-528 132.09,-516 132.09,-516 132.09,-510 138.09,-504 144.09,-504 144.09,-504 184.84,-504 184.84,-504 190.84,-504 196.84,-510 196.84,-516 196.84,-516 196.84,-528 196.84,-528 196.84,-534 190.84,-540 184.84,-540"/>
<text text-anchor="middle" x="164.47" y="-518.88" font-family="sans" font-size="10.00">modify_rg</text>
</g>
<!-- 3&#45;&gt;2 -->
<g id="edge11" class="edge">
<title>3&#45;&gt;2</title>
<path fill="none" stroke="grey" stroke-width="2" d="M131.46,-506.97C114.62,-498.16 95.25,-485.19 83.47,-468 71.79,-450.97 67.09,-428.13 65.27,-409.86"/>
<polygon fill="grey" stroke="grey" stroke-width="2" points="68.77,-409.7 64.59,-399.96 61.79,-410.18 68.77,-409.7"/>
</g>
<!-- 4 -->
<g id="node5" class="node">
<title>4</title>
<path fill="none" stroke="#568ad8" stroke-width="2" d="M202.09,-684C202.09,-684 144.84,-684 144.84,-684 138.84,-684 132.84,-678 132.84,-672 132.84,-672 132.84,-660 132.84,-660 132.84,-654 138.84,-648 144.84,-648 144.84,-648 202.09,-648 202.09,-648 208.09,-648 214.09,-654 214.09,-660 214.09,-660 214.09,-672 214.09,-672 214.09,-678 208.09,-684 202.09,-684"/>
<text text-anchor="middle" x="173.47" y="-662.88" font-family="sans" font-size="10.00">align_sample</text>
</g>
<!-- 4&#45;&gt;3 -->
<g id="edge13" class="edge">
<title>4&#45;&gt;3</title>
<path fill="none" stroke="grey" stroke-width="2" d="M172.33,-647.02C170.84,-623.54 168.21,-582.11 166.41,-553.64"/>
<polygon fill="grey" stroke="grey" stroke-width="2" points="169.91,-553.62 165.79,-543.86 162.93,-554.06 169.91,-553.62"/>
</g>
<!-- 5 -->
<g id="node6" class="node">
<title>5</title>
<path fill="none" stroke="#56d892" stroke-width="2" d="M243.84,-828C243.84,-828 119.09,-828 119.09,-828 113.09,-828 107.09,-822 107.09,-816 107.09,-816 107.09,-804 107.09,-804 107.09,-798 113.09,-792 119.09,-792 119.09,-792 243.84,-792 243.84,-792 249.84,-792 255.84,-798 255.84,-804 255.84,-804 255.84,-816 255.84,-816 255.84,-822 249.84,-828 243.84,-828"/>
<text text-anchor="middle" x="181.47" y="-806.88" font-family="sans" font-size="10.00">label_reads_with_condition</text>
</g>
<!-- 5&#45;&gt;4 -->
<g id="edge14" class="edge">
<title>5&#45;&gt;4</title>
<path fill="none" stroke="grey" stroke-width="2" d="M180.45,-791.02C179.13,-767.54 176.8,-726.11 175.19,-697.64"/>
<polygon fill="grey" stroke="grey" stroke-width="2" points="178.7,-697.65 174.64,-687.86 171.71,-698.04 178.7,-697.65"/>
</g>
<!-- 14 -->
<g id="node15" class="node">
<title>14</title>
<path fill="none" stroke="#d86e56" stroke-width="2" d="M293.47,-756C293.47,-756 223.47,-756 223.47,-756 217.47,-756 211.47,-750 211.47,-744 211.47,-744 211.47,-732 211.47,-732 211.47,-726 217.47,-720 223.47,-720 223.47,-720 293.47,-720 293.47,-720 299.47,-720 305.47,-726 305.47,-732 305.47,-732 305.47,-744 305.47,-744 305.47,-750 299.47,-756 293.47,-756"/>
<text text-anchor="middle" x="258.47" y="-734.88" font-family="sans" font-size="10.00">merge_samples</text>
</g>
<!-- 5&#45;&gt;14 -->
<g id="edge25" class="edge">
<title>5&#45;&gt;14</title>
<path fill="none" stroke="grey" stroke-width="2" d="M200.9,-791.34C209.49,-783.52 219.79,-774.16 229.28,-765.53"/>
<polygon fill="grey" stroke="grey" stroke-width="2" points="231.49,-768.25 236.53,-758.94 226.78,-763.07 231.49,-768.25"/>
</g>
<!-- 6 -->
<g id="node7" class="node">
<title>6</title>
<path fill="none" stroke="#d8a456" stroke-width="2" d="M244.97,-923C244.97,-923 117.97,-923 117.97,-923 111.97,-923 105.97,-917 105.97,-911 105.97,-911 105.97,-876 105.97,-876 105.97,-870 111.97,-864 117.97,-864 117.97,-864 244.97,-864 244.97,-864 250.97,-864 256.97,-870 256.97,-876 256.97,-876 256.97,-911 256.97,-911 256.97,-917 250.97,-923 244.97,-923"/>
<text text-anchor="middle" x="181.47" y="-909.5" font-family="sans" font-size="10.00">merge_individual_condition</text>
<text text-anchor="middle" x="181.47" y="-896.75" font-family="sans" font-size="10.00">condition: treated</text>
<text text-anchor="middle" x="181.47" y="-884" font-family="sans" font-size="10.00">individual: test_ind_1</text>
<text text-anchor="middle" x="181.47" y="-871.25" font-family="sans" font-size="10.00">label: cyclo_s345</text>
</g>
<!-- 6&#45;&gt;5 -->
<g id="edge15" class="edge">
<title>6&#45;&gt;5</title>
<path fill="none" stroke="grey" stroke-width="2" d="M181.47,-863.08C181.47,-856.07 181.47,-848.59 181.47,-841.54"/>
<polygon fill="grey" stroke="grey" stroke-width="2" points="184.97,-841.79 181.47,-831.79 177.97,-841.79 184.97,-841.79"/>
</g>
<!-- 7 -->
<g id="node8" class="node">
<title>7</title>
<path fill="none" stroke="#56b9d8" stroke-width="2" d="M200.59,-468C200.59,-468 104.34,-468 104.34,-468 98.34,-468 92.34,-462 92.34,-456 92.34,-456 92.34,-444 92.34,-444 92.34,-438 98.34,-432 104.34,-432 104.34,-432 200.59,-432 200.59,-432 206.59,-432 212.59,-438 212.59,-444 212.59,-444 212.59,-456 212.59,-456 212.59,-462 206.59,-468 200.59,-468"/>
<text text-anchor="middle" x="152.47" y="-453.25" font-family="sans" font-size="10.00">modify_vcf</text>
<text text-anchor="middle" x="152.47" y="-440.5" font-family="sans" font-size="10.00">individual: test_ind_1</text>
</g>
<!-- 7&#45;&gt;2 -->
<g id="edge12" class="edge">
<title>7&#45;&gt;2</title>
<path fill="none" stroke="grey" stroke-width="2" d="M130.26,-431.34C120.23,-423.36 108.17,-413.77 97.14,-404.99"/>
<polygon fill="grey" stroke="grey" stroke-width="2" points="99.34,-402.27 89.34,-398.79 94.99,-407.75 99.34,-402.27"/>
</g>
<!-- 19 -->
<g id="node20" class="node">
<title>19</title>
<path fill="none" stroke="#afd856" stroke-width="2" d="M242.09,-396C242.09,-396 154.84,-396 154.84,-396 148.84,-396 142.84,-390 142.84,-384 142.84,-384 142.84,-372 142.84,-372 142.84,-366 148.84,-360 154.84,-360 154.84,-360 242.09,-360 242.09,-360 248.09,-360 254.09,-366 254.09,-372 254.09,-372 254.09,-384 254.09,-384 254.09,-390 248.09,-396 242.09,-396"/>
<text text-anchor="middle" x="198.47" y="-374.88" font-family="sans" font-size="10.00">whatshap_haplotag</text>
</g>
<!-- 7&#45;&gt;19 -->
<g id="edge31" class="edge">
<title>7&#45;&gt;19</title>
<path fill="none" stroke="grey" stroke-width="2" d="M164.07,-431.34C168.78,-424.18 174.33,-415.73 179.59,-407.73"/>
<polygon fill="grey" stroke="grey" stroke-width="2" points="182.47,-409.71 185.04,-399.43 176.62,-405.87 182.47,-409.71"/>
</g>
<!-- 8 -->
<g id="node9" class="node">
<title>8</title>
<path fill="none" stroke="#d88556" stroke-width="2" d="M222.84,-252C222.84,-252 146.09,-252 146.09,-252 140.09,-252 134.09,-246 134.09,-240 134.09,-240 134.09,-228 134.09,-228 134.09,-222 140.09,-216 146.09,-216 146.09,-216 222.84,-216 222.84,-216 228.84,-216 234.84,-222 234.84,-228 234.84,-228 234.84,-240 234.84,-240 234.84,-246 228.84,-252 222.84,-252"/>
<text text-anchor="middle" x="184.47" y="-230.88" font-family="sans" font-size="10.00">create_dictionary</text>
</g>
<!-- 8&#45;&gt;0 -->
<g id="edge6" class="edge">
<title>8&#45;&gt;0</title>
<path fill="none" stroke="grey" stroke-width="2" d="M187.34,-215.03C190.46,-196.88 196.02,-168.16 203.47,-144 213.8,-110.47 229.49,-73.41 240.73,-48.41"/>
<polygon fill="grey" stroke="grey" stroke-width="2" points="243.78,-50.16 244.75,-39.6 237.42,-47.25 243.78,-50.16"/>
</g>
<!-- 8&#45;&gt;1 -->
<g id="edge10" class="edge">
<title>8&#45;&gt;1</title>
<path fill="none" stroke="grey" stroke-width="2" d="M160.49,-215.34C149.44,-207.19 136.11,-197.37 124,-188.45"/>
<polygon fill="grey" stroke="grey" stroke-width="2" points="126.32,-185.81 116.2,-182.7 122.17,-191.45 126.32,-185.81"/>
</g>
<!-- 24 -->
<g id="node25" class="node">
<title>24</title>
<path fill="none" stroke="#56d0d8" stroke-width="2" d="M302.59,-180C302.59,-180 224.34,-180 224.34,-180 218.34,-180 212.34,-174 212.34,-168 212.34,-168 212.34,-156 212.34,-156 212.34,-150 218.34,-144 224.34,-144 224.34,-144 302.59,-144 302.59,-144 308.59,-144 314.59,-150 314.59,-156 314.59,-156 314.59,-168 314.59,-168 314.59,-174 308.59,-180 302.59,-180"/>
<text text-anchor="middle" x="263.47" y="-158.88" font-family="sans" font-size="10.00">add_tags_to_bam</text>
</g>
<!-- 8&#45;&gt;24 -->
<g id="edge37" class="edge">
<title>8&#45;&gt;24</title>
<path fill="none" stroke="grey" stroke-width="2" d="M204.4,-215.34C213.22,-207.52 223.78,-198.16 233.52,-189.53"/>
<polygon fill="grey" stroke="grey" stroke-width="2" points="235.83,-192.16 241,-182.91 231.19,-186.92 235.83,-192.16"/>
</g>
<!-- 9 -->
<g id="node10" class="node">
<title>9</title>
<path fill="none" stroke="#61d856" stroke-width="2" d="M462.72,-396C462.72,-396 430.22,-396 430.22,-396 424.22,-396 418.22,-390 418.22,-384 418.22,-384 418.22,-372 418.22,-372 418.22,-366 424.22,-360 430.22,-360 430.22,-360 462.72,-360 462.72,-360 468.72,-360 474.72,-366 474.72,-372 474.72,-372 474.72,-384 474.72,-384 474.72,-390 468.72,-396 462.72,-396"/>
<text text-anchor="middle" x="446.47" y="-374.88" font-family="sans" font-size="10.00">collapse</text>
</g>
<!-- 9&#45;&gt;0 -->
<g id="edge5" class="edge">
<title>9&#45;&gt;0</title>
<path fill="none" stroke="grey" stroke-width="2" d="M459.05,-359.13C476.11,-333.1 504.47,-282.67 504.47,-235 504.47,-235 504.47,-235 504.47,-161 504.47,-65.81 365.73,-33.64 294.96,-23.42"/>
<polygon fill="grey" stroke="grey" stroke-width="2" points="295.55,-19.97 285.18,-22.11 294.62,-26.91 295.55,-19.97"/>
</g>
<!-- 9&#45;&gt;8 -->
<g id="edge16" class="edge">
<title>9&#45;&gt;8</title>
<path fill="none" stroke="grey" stroke-width="2" d="M417.46,-363.91C414.43,-362.57 411.39,-361.25 408.47,-360 369.62,-343.37 357.87,-343.66 320.47,-324 284.46,-305.08 245.89,-279.25 219.05,-260.29"/>
<polygon fill="grey" stroke="grey" stroke-width="2" points="221.3,-257.6 211.13,-254.64 217.24,-263.29 221.3,-257.6"/>
</g>
<!-- 22 -->
<g id="node23" class="node">
<title>22</title>
<path fill="none" stroke="#d85656" stroke-width="2" d="M409.34,-324C409.34,-324 341.59,-324 341.59,-324 335.59,-324 329.59,-318 329.59,-312 329.59,-312 329.59,-300 329.59,-300 329.59,-294 335.59,-288 341.59,-288 341.59,-288 409.34,-288 409.34,-288 415.34,-288 421.34,-294 421.34,-300 421.34,-300 421.34,-312 421.34,-312 421.34,-318 415.34,-324 409.34,-324"/>
<text text-anchor="middle" x="375.47" y="-302.88" font-family="sans" font-size="10.00">pigeon_process</text>
</g>
<!-- 9&#45;&gt;22 -->
<g id="edge34" class="edge">
<title>9&#45;&gt;22</title>
<path fill="none" stroke="grey" stroke-width="2" d="M428.55,-359.34C420.71,-351.6 411.33,-342.36 402.65,-333.81"/>
<polygon fill="grey" stroke="grey" stroke-width="2" points="405.36,-331.56 395.78,-327.03 400.44,-336.54 405.36,-331.56"/>
</g>
<!-- 27 -->
<g id="node28" class="node">
<title>27</title>
<path fill="none" stroke="#c6d856" stroke-width="2" d="M464.84,-252C464.84,-252 382.09,-252 382.09,-252 376.09,-252 370.09,-246 370.09,-240 370.09,-240 370.09,-228 370.09,-228 370.09,-222 376.09,-216 382.09,-216 382.09,-216 464.84,-216 464.84,-216 470.84,-216 476.84,-222 476.84,-228 476.84,-228 476.84,-240 476.84,-240 476.84,-246 470.84,-252 464.84,-252"/>
<text text-anchor="middle" x="423.47" y="-230.88" font-family="sans" font-size="10.00">isoranker_analysis</text>
</g>
<!-- 9&#45;&gt;27 -->
<g id="edge40" class="edge">
<title>9&#45;&gt;27</title>
<path fill="none" stroke="grey" stroke-width="2" d="M443.55,-359.02C439.75,-335.54 433.04,-294.11 428.43,-265.64"/>
<polygon fill="grey" stroke="grey" stroke-width="2" points="431.89,-265.14 426.84,-255.83 424.98,-266.26 431.89,-265.14"/>
</g>
<!-- 10 -->
<g id="node11" class="node">
<title>10</title>
<path fill="none" stroke="#78d856" stroke-width="2" d="M324.47,-468C324.47,-468 242.47,-468 242.47,-468 236.47,-468 230.47,-462 230.47,-456 230.47,-456 230.47,-444 230.47,-444 230.47,-438 236.47,-432 242.47,-432 242.47,-432 324.47,-432 324.47,-432 330.47,-432 336.47,-438 336.47,-444 336.47,-444 336.47,-456 336.47,-456 336.47,-462 330.47,-468 324.47,-468"/>
<text text-anchor="middle" x="283.47" y="-446.88" font-family="sans" font-size="10.00">merge_all_aligned</text>
</g>
<!-- 10&#45;&gt;9 -->
<g id="edge20" class="edge">
<title>10&#45;&gt;9</title>
<path fill="none" stroke="grey" stroke-width="2" d="M326.37,-431.06C347.89,-422 374.6,-410.68 405.76,-397.14"/>
<polygon fill="grey" stroke="grey" stroke-width="2" points="406.9,-400.46 414.67,-393.26 404.1,-394.05 406.9,-400.46"/>
</g>
<!-- 11 -->
<g id="node12" class="node">
<title>11</title>
<path fill="none" stroke="#56d863" stroke-width="2" d="M306.97,-540C306.97,-540 233.97,-540 233.97,-540 227.97,-540 221.97,-534 221.97,-528 221.97,-528 221.97,-516 221.97,-516 221.97,-510 227.97,-504 233.97,-504 233.97,-504 306.97,-504 306.97,-504 312.97,-504 318.97,-510 318.97,-516 318.97,-516 318.97,-528 318.97,-528 318.97,-534 312.97,-540 306.97,-540"/>
<text text-anchor="middle" x="270.47" y="-518.88" font-family="sans" font-size="10.00">label_transcripts</text>
</g>
<!-- 11&#45;&gt;10 -->
<g id="edge21" class="edge">
<title>11&#45;&gt;10</title>
<path fill="none" stroke="grey" stroke-width="2" d="M273.75,-503.34C274.97,-496.75 276.39,-489.08 277.77,-481.67"/>
<polygon fill="grey" stroke="grey" stroke-width="2" points="281.2,-482.35 279.59,-471.88 274.32,-481.07 281.2,-482.35"/>
</g>
<!-- 12 -->
<g id="node13" class="node">
<title>12</title>
<path fill="none" stroke="#97d856" stroke-width="2" d="M282.47,-612C282.47,-612 252.47,-612 252.47,-612 246.47,-612 240.47,-606 240.47,-600 240.47,-600 240.47,-588 240.47,-588 240.47,-582 246.47,-576 252.47,-576 252.47,-576 282.47,-576 282.47,-576 288.47,-576 294.47,-582 294.47,-588 294.47,-588 294.47,-600 294.47,-600 294.47,-606 288.47,-612 282.47,-612"/>
<text text-anchor="middle" x="267.47" y="-590.88" font-family="sans" font-size="10.00">align</text>
</g>
<!-- 12&#45;&gt;11 -->
<g id="edge22" class="edge">
<title>12&#45;&gt;11</title>
<path fill="none" stroke="grey" stroke-width="2" d="M268.22,-575.34C268.5,-568.75 268.83,-561.08 269.15,-553.67"/>
<polygon fill="grey" stroke="grey" stroke-width="2" points="272.64,-554.07 269.57,-543.93 265.64,-553.77 272.64,-554.07"/>
</g>
<!-- 13 -->
<g id="node14" class="node">
<title>13</title>
<path fill="none" stroke="#d8bc56" stroke-width="2" d="M279.47,-684C279.47,-684 249.47,-684 249.47,-684 243.47,-684 237.47,-678 237.47,-672 237.47,-672 237.47,-660 237.47,-660 237.47,-654 243.47,-648 249.47,-648 249.47,-648 279.47,-648 279.47,-648 285.47,-648 291.47,-654 291.47,-660 291.47,-660 291.47,-672 291.47,-672 291.47,-678 285.47,-684 279.47,-684"/>
<text text-anchor="middle" x="264.47" y="-662.88" font-family="sans" font-size="10.00">cluster</text>
</g>
<!-- 13&#45;&gt;12 -->
<g id="edge23" class="edge">
<title>13&#45;&gt;12</title>
<path fill="none" stroke="grey" stroke-width="2" d="M265.22,-647.34C265.5,-640.75 265.83,-633.08 266.15,-625.67"/>
<polygon fill="grey" stroke="grey" stroke-width="2" points="269.64,-626.07 266.57,-615.93 262.64,-625.77 269.64,-626.07"/>
</g>
<!-- 14&#45;&gt;13 -->
<g id="edge24" class="edge">
<title>14&#45;&gt;13</title>
<path fill="none" stroke="grey" stroke-width="2" d="M259.98,-719.34C260.54,-712.75 261.2,-705.08 261.84,-697.67"/>
<polygon fill="grey" stroke="grey" stroke-width="2" points="265.31,-698.18 262.67,-687.92 258.33,-697.58 265.31,-698.18"/>
</g>
<!-- 15 -->
<g id="node16" class="node">
<title>15</title>
<path fill="none" stroke="#56d892" stroke-width="2" d="M418.84,-828C418.84,-828 294.09,-828 294.09,-828 288.09,-828 282.09,-822 282.09,-816 282.09,-816 282.09,-804 282.09,-804 282.09,-798 288.09,-792 294.09,-792 294.09,-792 418.84,-792 418.84,-792 424.84,-792 430.84,-798 430.84,-804 430.84,-804 430.84,-816 430.84,-816 430.84,-822 424.84,-828 418.84,-828"/>
<text text-anchor="middle" x="356.47" y="-806.88" font-family="sans" font-size="10.00">label_reads_with_condition</text>
</g>
<!-- 15&#45;&gt;14 -->
<g id="edge26" class="edge">
<title>15&#45;&gt;14</title>
<path fill="none" stroke="grey" stroke-width="2" d="M331.48,-791.15C320.08,-783.01 306.37,-773.22 293.92,-764.33"/>
<polygon fill="grey" stroke="grey" stroke-width="2" points="296.04,-761.54 285.87,-758.57 291.97,-767.23 296.04,-761.54"/>
</g>
<!-- 21 -->
<g id="node22" class="node">
<title>21</title>
<path fill="none" stroke="#568ad8" stroke-width="2" d="M393.09,-756C393.09,-756 335.84,-756 335.84,-756 329.84,-756 323.84,-750 323.84,-744 323.84,-744 323.84,-732 323.84,-732 323.84,-726 329.84,-720 335.84,-720 335.84,-720 393.09,-720 393.09,-720 399.09,-720 405.09,-726 405.09,-732 405.09,-732 405.09,-744 405.09,-744 405.09,-750 399.09,-756 393.09,-756"/>
<text text-anchor="middle" x="364.47" y="-734.88" font-family="sans" font-size="10.00">align_sample</text>
</g>
<!-- 15&#45;&gt;21 -->
<g id="edge33" class="edge">
<title>15&#45;&gt;21</title>
<path fill="none" stroke="grey" stroke-width="2" d="M358.48,-791.34C359.24,-784.75 360.11,-777.08 360.96,-769.67"/>
<polygon fill="grey" stroke="grey" stroke-width="2" points="364.42,-770.24 362.08,-759.91 357.46,-769.45 364.42,-770.24"/>
</g>
<!-- 16 -->
<g id="node17" class="node">
<title>16</title>
<path fill="none" stroke="#d8a456" stroke-width="2" d="M419.97,-923C419.97,-923 292.97,-923 292.97,-923 286.97,-923 280.97,-917 280.97,-911 280.97,-911 280.97,-876 280.97,-876 280.97,-870 286.97,-864 292.97,-864 292.97,-864 419.97,-864 419.97,-864 425.97,-864 431.97,-870 431.97,-876 431.97,-876 431.97,-911 431.97,-911 431.97,-917 425.97,-923 419.97,-923"/>
<text text-anchor="middle" x="356.47" y="-909.5" font-family="sans" font-size="10.00">merge_individual_condition</text>
<text text-anchor="middle" x="356.47" y="-896.75" font-family="sans" font-size="10.00">condition: untreated</text>
<text text-anchor="middle" x="356.47" y="-884" font-family="sans" font-size="10.00">individual: test_ind_1</text>
<text text-anchor="middle" x="356.47" y="-871.25" font-family="sans" font-size="10.00">label: noncyclo_s344</text>
</g>
<!-- 16&#45;&gt;15 -->
<g id="edge27" class="edge">
<title>16&#45;&gt;15</title>
<path fill="none" stroke="grey" stroke-width="2" d="M356.47,-863.08C356.47,-856.07 356.47,-848.59 356.47,-841.54"/>
<polygon fill="grey" stroke="grey" stroke-width="2" points="359.97,-841.79 356.47,-831.79 352.97,-841.79 359.97,-841.79"/>
</g>
<!-- 17&#45;&gt;8 -->
<g id="edge17" class="edge">
<title>17&#45;&gt;8</title>
<path fill="none" stroke="grey" stroke-width="2" d="M95.06,-287.15C109.58,-278.68 127.17,-268.42 142.89,-259.25"/>
<polygon fill="grey" stroke="grey" stroke-width="2" points="144.44,-262.4 151.31,-254.34 140.91,-256.35 144.44,-262.4"/>
</g>
<!-- 18 -->
<g id="node19" class="node">
<title>18</title>
<path fill="none" stroke="#5673d8" stroke-width="2" d="M223.22,-324C223.22,-324 145.72,-324 145.72,-324 139.72,-324 133.72,-318 133.72,-312 133.72,-312 133.72,-300 133.72,-300 133.72,-294 139.72,-288 145.72,-288 145.72,-288 223.22,-288 223.22,-288 229.22,-288 235.22,-294 235.22,-300 235.22,-300 235.22,-312 235.22,-312 235.22,-318 229.22,-324 223.22,-324"/>
<text text-anchor="middle" x="184.47" y="-302.88" font-family="sans" font-size="10.00">extract_read_info</text>
</g>
<!-- 18&#45;&gt;8 -->
<g id="edge18" class="edge">
<title>18&#45;&gt;8</title>
<path fill="none" stroke="grey" stroke-width="2" d="M184.47,-287.34C184.47,-280.75 184.47,-273.08 184.47,-265.67"/>
<polygon fill="grey" stroke="grey" stroke-width="2" points="187.97,-265.93 184.47,-255.93 180.97,-265.93 187.97,-265.93"/>
</g>
<!-- 19&#45;&gt;18 -->
<g id="edge29" class="edge">
<title>19&#45;&gt;18</title>
<path fill="none" stroke="grey" stroke-width="2" d="M194.93,-359.34C193.62,-352.75 192.08,-345.08 190.6,-337.67"/>
<polygon fill="grey" stroke="grey" stroke-width="2" points="194.03,-336.99 188.64,-327.87 187.17,-338.36 194.03,-336.99"/>
</g>
<!-- 19&#45;&gt;24 -->
<g id="edge36" class="edge">
<title>19&#45;&gt;24</title>
<path fill="none" stroke="grey" stroke-width="2" d="M218.61,-359.34C228.08,-349.85 238.56,-337.37 244.47,-324 263.18,-281.65 265.69,-227.25 265.09,-193.77"/>
<polygon fill="grey" stroke="grey" stroke-width="2" points="268.59,-193.71 264.78,-183.83 261.59,-193.93 268.59,-193.71"/>
</g>
<!-- 20 -->
<g id="node21" class="node">
<title>20</title>
<path fill="none" stroke="#56d8c9" stroke-width="2" d="M384.84,-612C384.84,-612 344.09,-612 344.09,-612 338.09,-612 332.09,-606 332.09,-600 332.09,-600 332.09,-588 332.09,-588 332.09,-582 338.09,-576 344.09,-576 344.09,-576 384.84,-576 384.84,-576 390.84,-576 396.84,-582 396.84,-588 396.84,-588 396.84,-600 396.84,-600 396.84,-606 390.84,-612 384.84,-612"/>
<text text-anchor="middle" x="364.47" y="-590.88" font-family="sans" font-size="10.00">modify_rg</text>
</g>
<!-- 20&#45;&gt;19 -->
<g id="edge30" class="edge">
<title>20&#45;&gt;19</title>
<path fill="none" stroke="grey" stroke-width="2" d="M367.92,-575.02C373.05,-542.64 378.81,-473.99 345.47,-432 334.99,-418.8 300.05,-405.93 266.87,-396.18"/>
<polygon fill="grey" stroke="grey" stroke-width="2" points="268.26,-392.94 257.69,-393.56 266.35,-399.67 268.26,-392.94"/>
</g>
<!-- 21&#45;&gt;20 -->
<g id="edge32" class="edge">
<title>21&#45;&gt;20</title>
<path fill="none" stroke="grey" stroke-width="2" d="M364.47,-719.02C364.47,-695.54 364.47,-654.11 364.47,-625.64"/>
<polygon fill="grey" stroke="grey" stroke-width="2" points="367.97,-625.87 364.47,-615.87 360.97,-625.87 367.97,-625.87"/>
</g>
<!-- 22&#45;&gt;0 -->
<g id="edge7" class="edge">
<title>22&#45;&gt;0</title>
<path fill="none" stroke="grey" stroke-width="2" d="M370.69,-287.36C367.94,-277.06 364.44,-263.81 361.47,-252 341.41,-172.23 361.93,-141.83 318.47,-72 311.79,-61.27 302.19,-51.68 292.45,-43.71"/>
<polygon fill="grey" stroke="grey" stroke-width="2" points="294.84,-41.13 284.77,-37.84 290.59,-46.69 294.84,-41.13"/>
</g>
<!-- 22&#45;&gt;8 -->
<g id="edge19" class="edge">
<title>22&#45;&gt;8</title>
<path fill="none" stroke="grey" stroke-width="2" d="M328.74,-287.88C303.65,-278.68 272.42,-267.23 245.43,-257.34"/>
<polygon fill="grey" stroke="grey" stroke-width="2" points="246.81,-254.12 236.21,-253.97 244.4,-260.69 246.81,-254.12"/>
</g>
<!-- 22&#45;&gt;27 -->
<g id="edge41" class="edge">
<title>22&#45;&gt;27</title>
<path fill="none" stroke="grey" stroke-width="2" d="M387.58,-287.34C392.54,-280.1 398.41,-271.53 403.96,-263.45"/>
<polygon fill="grey" stroke="grey" stroke-width="2" points="406.71,-265.62 409.48,-255.4 400.94,-261.67 406.71,-265.62"/>
</g>
<!-- 23 -->
<g id="node24" class="node">
<title>23</title>
<path fill="none" stroke="#56a2d8" stroke-width="2" d="M387.84,-396C387.84,-396 287.09,-396 287.09,-396 281.09,-396 275.09,-390 275.09,-384 275.09,-384 275.09,-372 275.09,-372 275.09,-366 281.09,-360 287.09,-360 287.09,-360 387.84,-360 387.84,-360 393.84,-360 399.84,-366 399.84,-372 399.84,-372 399.84,-384 399.84,-384 399.84,-390 393.84,-396 387.84,-396"/>
<text text-anchor="middle" x="337.47" y="-374.88" font-family="sans" font-size="10.00">pigeon_prepare_annot</text>
</g>
<!-- 23&#45;&gt;22 -->
<g id="edge35" class="edge">
<title>23&#45;&gt;22</title>
<path fill="none" stroke="grey" stroke-width="2" d="M347.05,-359.34C350.85,-352.34 355.32,-344.12 359.57,-336.28"/>
<polygon fill="grey" stroke="grey" stroke-width="2" points="362.61,-338.02 364.3,-327.56 356.46,-334.68 362.61,-338.02"/>
</g>
<!-- 24&#45;&gt;0 -->
<g id="edge2" class="edge">
<title>24&#45;&gt;0</title>
<path fill="none" stroke="grey" stroke-width="2" d="M256.22,-143.19C252.49,-133.06 248.35,-120.03 246.47,-108 243.44,-88.65 245.34,-66.74 248.05,-49.5"/>
<polygon fill="grey" stroke="grey" stroke-width="2" points="251.47,-50.25 249.78,-39.79 244.58,-49.02 251.47,-50.25"/>
</g>
<!-- 26 -->
<g id="node27" class="node">
<title>26</title>
<path fill="none" stroke="#56d8a9" stroke-width="2" d="M297.47,-108C297.47,-108 267.47,-108 267.47,-108 261.47,-108 255.47,-102 255.47,-96 255.47,-96 255.47,-84 255.47,-84 255.47,-78 261.47,-72 267.47,-72 267.47,-72 297.47,-72 297.47,-72 303.47,-72 309.47,-78 309.47,-84 309.47,-84 309.47,-96 309.47,-96 309.47,-102 303.47,-108 297.47,-108"/>
<text text-anchor="middle" x="282.47" y="-86.88" font-family="sans" font-size="10.00">qc_flnc</text>
</g>
<!-- 24&#45;&gt;26 -->
<g id="edge39" class="edge">
<title>24&#45;&gt;26</title>
<path fill="none" stroke="grey" stroke-width="2" d="M268.26,-143.34C270.07,-136.67 272.18,-128.89 274.22,-121.39"/>
<polygon fill="grey" stroke="grey" stroke-width="2" points="277.57,-122.39 276.81,-111.82 270.82,-120.56 277.57,-122.39"/>
</g>
<!-- 25&#45;&gt;0 -->
<g id="edge3" class="edge">
<title>25&#45;&gt;0</title>
<path fill="none" stroke="grey" stroke-width="2" d="M157.21,-73.46C174.36,-63.86 196.64,-51.38 215.54,-40.8"/>
<polygon fill="grey" stroke="grey" stroke-width="2" points="217.15,-43.91 224.16,-35.97 213.72,-37.8 217.15,-43.91"/>
</g>
<!-- 26&#45;&gt;0 -->
<g id="edge4" class="edge">
<title>26&#45;&gt;0</title>
<path fill="none" stroke="grey" stroke-width="2" d="M275.4,-71.34C272.67,-64.51 269.47,-56.5 266.4,-48.83"/>
<polygon fill="grey" stroke="grey" stroke-width="2" points="269.71,-47.7 262.75,-39.71 263.21,-50.3 269.71,-47.7"/>
</g>
<!-- 27&#45;&gt;0 -->
<g id="edge8" class="edge">
<title>27&#45;&gt;0</title>
<path fill="none" stroke="grey" stroke-width="2" d="M420.21,-215.12C413.53,-182.89 395.48,-114.47 356.47,-72 339.62,-53.66 314.95,-40.6 294.1,-32.04"/>
<polygon fill="grey" stroke="grey" stroke-width="2" points="295.45,-28.81 284.86,-28.48 292.93,-35.34 295.45,-28.81"/>
</g>
</g>
</svg>
