<?xml version="1.0" encoding="UTF-8" standalone="no"?>
<!DOCTYPE svg PUBLIC "-//W3C//DTD SVG 1.1//EN"
 "http://www.w3.org/Graphics/SVG/1.1/DTD/svg11.dtd">
<!-- Generated by graphviz version 12.0.0 (20240803.0821)
 -->
<!-- Title: snakemake_dag Pages: 1 -->
<svg width="641pt" height="931pt"
 viewBox="0.00 0.00 640.50 931.00" xmlns="http://www.w3.org/2000/svg" xmlns:xlink="http://www.w3.org/1999/xlink">
<g id="graph0" class="graph" transform="scale(1 1) rotate(0) translate(4 927)">
<title>snakemake_dag</title>
<polygon fill="white" stroke="none" points="-4,4 -4,-927 636.5,-927 636.5,4 -4,4"/>
<!-- 0 -->
<g id="node1" class="node">
<title>0</title>
<path fill="none" stroke="#61d856" stroke-width="2" d="M381.5,-36C381.5,-36 351.5,-36 351.5,-36 345.5,-36 339.5,-30 339.5,-24 339.5,-24 339.5,-12 339.5,-12 339.5,-6 345.5,0 351.5,0 351.5,0 381.5,0 381.5,0 387.5,0 393.5,-6 393.5,-12 393.5,-12 393.5,-24 393.5,-24 393.5,-30 387.5,-36 381.5,-36"/>
<text text-anchor="middle" x="366.5" y="-14.88" font-family="sans" font-size="10.00">all</text>
</g>
<!-- 1 -->
<g id="node2" class="node">
<title>1</title>
<path fill="none" stroke="#c6d856" stroke-width="2" d="M144.62,-180C144.62,-180 66.38,-180 66.38,-180 60.38,-180 54.38,-174 54.38,-168 54.38,-168 54.38,-156 54.38,-156 54.38,-150 60.38,-144 66.38,-144 66.38,-144 144.62,-144 144.62,-144 150.62,-144 156.62,-150 156.62,-156 156.62,-156 156.62,-168 156.62,-168 156.62,-174 150.62,-180 144.62,-180"/>
<text text-anchor="middle" x="105.5" y="-158.88" font-family="sans" font-size="10.00">add_tags_to_bam</text>
</g>
<!-- 1&#45;&gt;0 -->
<g id="edge1" class="edge">
<title>1&#45;&gt;0</title>
<path fill="none" stroke="grey" stroke-width="2" d="M103.35,-143.05C102.03,-122.99 103.29,-90.86 121.5,-72 149.31,-43.2 263.71,-28.42 325.86,-22.38"/>
<polygon fill="grey" stroke="grey" stroke-width="2" points="326,-25.89 335.63,-21.47 325.35,-18.92 326,-25.89"/>
</g>
<!-- 37 -->
<g id="node38" class="node">
<title>37</title>
<path fill="none" stroke="#d8bc56" stroke-width="2" d="M172.5,-108C172.5,-108 142.5,-108 142.5,-108 136.5,-108 130.5,-102 130.5,-96 130.5,-96 130.5,-84 130.5,-84 130.5,-78 136.5,-72 142.5,-72 142.5,-72 172.5,-72 172.5,-72 178.5,-72 184.5,-78 184.5,-84 184.5,-84 184.5,-96 184.5,-96 184.5,-102 178.5,-108 172.5,-108"/>
<text text-anchor="middle" x="157.5" y="-86.88" font-family="sans" font-size="10.00">qc_flnc</text>
</g>
<!-- 1&#45;&gt;37 -->
<g id="edge54" class="edge">
<title>1&#45;&gt;37</title>
<path fill="none" stroke="grey" stroke-width="2" d="M118.62,-143.34C124.06,-136.01 130.51,-127.34 136.57,-119.18"/>
<polygon fill="grey" stroke="grey" stroke-width="2" points="139.24,-121.45 142.4,-111.33 133.62,-117.27 139.24,-121.45"/>
</g>
<!-- 2 -->
<g id="node3" class="node">
<title>2</title>
<path fill="none" stroke="#d8d356" stroke-width="2" d="M110.12,-396C110.12,-396 22.88,-396 22.88,-396 16.88,-396 10.88,-390 10.88,-384 10.88,-384 10.88,-372 10.88,-372 10.88,-366 16.88,-360 22.88,-360 22.88,-360 110.12,-360 110.12,-360 116.12,-360 122.12,-366 122.12,-372 122.12,-372 122.12,-384 122.12,-384 122.12,-390 116.12,-396 110.12,-396"/>
<text text-anchor="middle" x="66.5" y="-374.88" font-family="sans" font-size="10.00">whatshap_haplotag</text>
</g>
<!-- 2&#45;&gt;1 -->
<g id="edge11" class="edge">
<title>2&#45;&gt;1</title>
<path fill="none" stroke="grey" stroke-width="2" d="M36.5,-359.13C24.51,-350.23 12.02,-338.3 5.5,-324 -1.14,-309.44 1.82,-303.57 5.5,-288 13.72,-253.18 19.24,-244.01 41.5,-216 49.36,-206.11 59.33,-196.78 69.05,-188.79"/>
<polygon fill="grey" stroke="grey" stroke-width="2" points="70.91,-191.78 76.61,-182.85 66.58,-186.28 70.91,-191.78"/>
</g>
<!-- 23 -->
<g id="node24" class="node">
<title>23</title>
<path fill="none" stroke="#78d856" stroke-width="2" d="M114.25,-324C114.25,-324 36.75,-324 36.75,-324 30.75,-324 24.75,-318 24.75,-312 24.75,-312 24.75,-300 24.75,-300 24.75,-294 30.75,-288 36.75,-288 36.75,-288 114.25,-288 114.25,-288 120.25,-288 126.25,-294 126.25,-300 126.25,-300 126.25,-312 126.25,-312 126.25,-318 120.25,-324 114.25,-324"/>
<text text-anchor="middle" x="75.5" y="-302.88" font-family="sans" font-size="10.00">extract_read_info</text>
</g>
<!-- 2&#45;&gt;23 -->
<g id="edge37" class="edge">
<title>2&#45;&gt;23</title>
<path fill="none" stroke="grey" stroke-width="2" d="M68.77,-359.34C69.62,-352.75 70.6,-345.08 71.56,-337.67"/>
<polygon fill="grey" stroke="grey" stroke-width="2" points="75.01,-338.27 72.81,-327.9 68.07,-337.38 75.01,-338.27"/>
</g>
<!-- 3 -->
<g id="node4" class="node">
<title>3</title>
<path fill="none" stroke="#56d892" stroke-width="2" d="M86.88,-540C86.88,-540 46.12,-540 46.12,-540 40.12,-540 34.12,-534 34.12,-528 34.12,-528 34.12,-516 34.12,-516 34.12,-510 40.12,-504 46.12,-504 46.12,-504 86.88,-504 86.88,-504 92.88,-504 98.88,-510 98.88,-516 98.88,-516 98.88,-528 98.88,-528 98.88,-534 92.88,-540 86.88,-540"/>
<text text-anchor="middle" x="66.5" y="-518.88" font-family="sans" font-size="10.00">modify_rg</text>
</g>
<!-- 3&#45;&gt;2 -->
<g id="edge13" class="edge">
<title>3&#45;&gt;2</title>
<path fill="none" stroke="grey" stroke-width="2" d="M66.5,-503.02C66.5,-479.54 66.5,-438.11 66.5,-409.64"/>
<polygon fill="grey" stroke="grey" stroke-width="2" points="70,-409.87 66.5,-399.87 63,-409.87 70,-409.87"/>
</g>
<!-- 4 -->
<g id="node5" class="node">
<title>4</title>
<path fill="none" stroke="#56d0d8" stroke-width="2" d="M96.12,-612C96.12,-612 38.88,-612 38.88,-612 32.88,-612 26.88,-606 26.88,-600 26.88,-600 26.88,-588 26.88,-588 26.88,-582 32.88,-576 38.88,-576 38.88,-576 96.12,-576 96.12,-576 102.12,-576 108.12,-582 108.12,-588 108.12,-588 108.12,-600 108.12,-600 108.12,-606 102.12,-612 96.12,-612"/>
<text text-anchor="middle" x="67.5" y="-590.88" font-family="sans" font-size="10.00">align_sample</text>
</g>
<!-- 4&#45;&gt;3 -->
<g id="edge15" class="edge">
<title>4&#45;&gt;3</title>
<path fill="none" stroke="grey" stroke-width="2" d="M67.25,-575.34C67.15,-568.75 67.04,-561.08 66.94,-553.67"/>
<polygon fill="grey" stroke="grey" stroke-width="2" points="70.44,-553.88 66.8,-543.93 63.44,-553.98 70.44,-553.88"/>
</g>
<!-- 5 -->
<g id="node6" class="node">
<title>5</title>
<path fill="none" stroke="#afd856" stroke-width="2" d="M137.88,-828C137.88,-828 13.12,-828 13.12,-828 7.12,-828 1.12,-822 1.12,-816 1.12,-816 1.12,-804 1.12,-804 1.12,-798 7.12,-792 13.12,-792 13.12,-792 137.88,-792 137.88,-792 143.88,-792 149.88,-798 149.88,-804 149.88,-804 149.88,-816 149.88,-816 149.88,-822 143.88,-828 137.88,-828"/>
<text text-anchor="middle" x="75.5" y="-806.88" font-family="sans" font-size="10.00">label_reads_with_condition</text>
</g>
<!-- 5&#45;&gt;4 -->
<g id="edge16" class="edge">
<title>5&#45;&gt;4</title>
<path fill="none" stroke="grey" stroke-width="2" d="M74.83,-791.12C73.47,-754.62 70.35,-671.13 68.65,-625.74"/>
<polygon fill="grey" stroke="grey" stroke-width="2" points="72.16,-625.86 68.29,-616 65.16,-626.13 72.16,-625.86"/>
</g>
<!-- 14 -->
<g id="node15" class="node">
<title>14</title>
<path fill="none" stroke="#568ad8" stroke-width="2" d="M193.5,-756C193.5,-756 123.5,-756 123.5,-756 117.5,-756 111.5,-750 111.5,-744 111.5,-744 111.5,-732 111.5,-732 111.5,-726 117.5,-720 123.5,-720 123.5,-720 193.5,-720 193.5,-720 199.5,-720 205.5,-726 205.5,-732 205.5,-732 205.5,-744 205.5,-744 205.5,-750 199.5,-756 193.5,-756"/>
<text text-anchor="middle" x="158.5" y="-734.88" font-family="sans" font-size="10.00">merge_samples</text>
</g>
<!-- 5&#45;&gt;14 -->
<g id="edge29" class="edge">
<title>5&#45;&gt;14</title>
<path fill="none" stroke="grey" stroke-width="2" d="M96.44,-791.34C105.81,-783.44 117.04,-773.96 127.36,-765.26"/>
<polygon fill="grey" stroke="grey" stroke-width="2" points="129.57,-767.98 134.96,-758.85 125.06,-762.62 129.57,-767.98"/>
</g>
<!-- 6 -->
<g id="node7" class="node">
<title>6</title>
<path fill="none" stroke="#d86e56" stroke-width="2" d="M139,-923C139,-923 12,-923 12,-923 6,-923 0,-917 0,-911 0,-911 0,-876 0,-876 0,-870 6,-864 12,-864 12,-864 139,-864 139,-864 145,-864 151,-870 151,-876 151,-876 151,-911 151,-911 151,-917 145,-923 139,-923"/>
<text text-anchor="middle" x="75.5" y="-909.5" font-family="sans" font-size="10.00">merge_individual_condition</text>
<text text-anchor="middle" x="75.5" y="-896.75" font-family="sans" font-size="10.00">condition: treated</text>
<text text-anchor="middle" x="75.5" y="-884" font-family="sans" font-size="10.00">individual: test_ind_1</text>
<text text-anchor="middle" x="75.5" y="-871.25" font-family="sans" font-size="10.00">label: cyclo_s345</text>
</g>
<!-- 6&#45;&gt;5 -->
<g id="edge17" class="edge">
<title>6&#45;&gt;5</title>
<path fill="none" stroke="grey" stroke-width="2" d="M75.5,-863.08C75.5,-856.07 75.5,-848.59 75.5,-841.54"/>
<polygon fill="grey" stroke="grey" stroke-width="2" points="79,-841.79 75.5,-831.79 72,-841.79 79,-841.79"/>
</g>
<!-- 7 -->
<g id="node8" class="node">
<title>7</title>
<path fill="none" stroke="#5673d8" stroke-width="2" d="M202.62,-468C202.62,-468 106.38,-468 106.38,-468 100.38,-468 94.38,-462 94.38,-456 94.38,-456 94.38,-444 94.38,-444 94.38,-438 100.38,-432 106.38,-432 106.38,-432 202.62,-432 202.62,-432 208.62,-432 214.62,-438 214.62,-444 214.62,-444 214.62,-456 214.62,-456 214.62,-462 208.62,-468 202.62,-468"/>
<text text-anchor="middle" x="154.5" y="-453.25" font-family="sans" font-size="10.00">modify_vcf</text>
<text text-anchor="middle" x="154.5" y="-440.5" font-family="sans" font-size="10.00">individual: test_ind_1</text>
</g>
<!-- 7&#45;&gt;2 -->
<g id="edge14" class="edge">
<title>7&#45;&gt;2</title>
<path fill="none" stroke="grey" stroke-width="2" d="M132.29,-431.34C122.26,-423.36 110.21,-413.77 99.17,-404.99"/>
<polygon fill="grey" stroke="grey" stroke-width="2" points="101.38,-402.27 91.37,-398.79 97.02,-407.75 101.38,-402.27"/>
</g>
<!-- 25 -->
<g id="node26" class="node">
<title>25</title>
<path fill="none" stroke="#d8d356" stroke-width="2" d="M239.12,-396C239.12,-396 151.88,-396 151.88,-396 145.88,-396 139.88,-390 139.88,-384 139.88,-384 139.88,-372 139.88,-372 139.88,-366 145.88,-360 151.88,-360 151.88,-360 239.12,-360 239.12,-360 245.12,-360 251.12,-366 251.12,-372 251.12,-372 251.12,-384 251.12,-384 251.12,-390 245.12,-396 239.12,-396"/>
<text text-anchor="middle" x="195.5" y="-374.88" font-family="sans" font-size="10.00">whatshap_haplotag</text>
</g>
<!-- 7&#45;&gt;25 -->
<g id="edge40" class="edge">
<title>7&#45;&gt;25</title>
<path fill="none" stroke="grey" stroke-width="2" d="M164.85,-431.34C168.99,-424.26 173.87,-415.92 178.51,-408"/>
<polygon fill="grey" stroke="grey" stroke-width="2" points="181.45,-409.91 183.48,-399.51 175.41,-406.37 181.45,-409.91"/>
</g>
<!-- 8 -->
<g id="node9" class="node">
<title>8</title>
<path fill="none" stroke="#d88556" stroke-width="2" d="M353.88,-252C353.88,-252 277.12,-252 277.12,-252 271.12,-252 265.12,-246 265.12,-240 265.12,-240 265.12,-228 265.12,-228 265.12,-222 271.12,-216 277.12,-216 277.12,-216 353.88,-216 353.88,-216 359.88,-216 365.88,-222 365.88,-228 365.88,-228 365.88,-240 365.88,-240 365.88,-246 359.88,-252 353.88,-252"/>
<text text-anchor="middle" x="315.5" y="-230.88" font-family="sans" font-size="10.00">create_dictionary</text>
</g>
<!-- 8&#45;&gt;0 -->
<g id="edge8" class="edge">
<title>8&#45;&gt;0</title>
<path fill="none" stroke="grey" stroke-width="2" d="M366.71,-217.29C384.4,-209.13 402.32,-197.17 412.5,-180 437.68,-137.54 409.22,-80.58 387.2,-47.03"/>
<polygon fill="grey" stroke="grey" stroke-width="2" points="390.31,-45.37 381.77,-39.1 384.53,-49.33 390.31,-45.37"/>
</g>
<!-- 8&#45;&gt;1 -->
<g id="edge12" class="edge">
<title>8&#45;&gt;1</title>
<path fill="none" stroke="grey" stroke-width="2" d="M264.13,-215.88C235.63,-206.38 199.94,-194.48 169.62,-184.37"/>
<polygon fill="grey" stroke="grey" stroke-width="2" points="170.9,-181.11 160.31,-181.27 168.69,-187.75 170.9,-181.11"/>
</g>
<!-- 35 -->
<g id="node36" class="node">
<title>35</title>
<path fill="none" stroke="#c6d856" stroke-width="2" d="M269.62,-180C269.62,-180 191.38,-180 191.38,-180 185.38,-180 179.38,-174 179.38,-168 179.38,-168 179.38,-156 179.38,-156 179.38,-150 185.38,-144 191.38,-144 191.38,-144 269.62,-144 269.62,-144 275.62,-144 281.62,-150 281.62,-156 281.62,-156 281.62,-168 281.62,-168 281.62,-174 275.62,-180 269.62,-180"/>
<text text-anchor="middle" x="230.5" y="-158.88" font-family="sans" font-size="10.00">add_tags_to_bam</text>
</g>
<!-- 8&#45;&gt;35 -->
<g id="edge51" class="edge">
<title>8&#45;&gt;35</title>
<path fill="none" stroke="grey" stroke-width="2" d="M294.05,-215.34C284.36,-207.36 272.72,-197.77 262.06,-188.99"/>
<polygon fill="grey" stroke="grey" stroke-width="2" points="264.52,-186.48 254.57,-182.83 260.07,-191.88 264.52,-186.48"/>
</g>
<!-- 36 -->
<g id="node37" class="node">
<title>36</title>
<path fill="none" stroke="#c6d856" stroke-width="2" d="M391.62,-180C391.62,-180 313.38,-180 313.38,-180 307.38,-180 301.38,-174 301.38,-168 301.38,-168 301.38,-156 301.38,-156 301.38,-150 307.38,-144 313.38,-144 313.38,-144 391.62,-144 391.62,-144 397.62,-144 403.62,-150 403.62,-156 403.62,-156 403.62,-168 403.62,-168 403.62,-174 397.62,-180 391.62,-180"/>
<text text-anchor="middle" x="352.5" y="-158.88" font-family="sans" font-size="10.00">add_tags_to_bam</text>
</g>
<!-- 8&#45;&gt;36 -->
<g id="edge53" class="edge">
<title>8&#45;&gt;36</title>
<path fill="none" stroke="grey" stroke-width="2" d="M324.84,-215.34C328.53,-208.34 332.88,-200.12 337.02,-192.28"/>
<polygon fill="grey" stroke="grey" stroke-width="2" points="340.04,-194.05 341.62,-183.58 333.86,-190.78 340.04,-194.05"/>
</g>
<!-- 9 -->
<g id="node10" class="node">
<title>9</title>
<path fill="none" stroke="#97d856" stroke-width="2" d="M595.75,-396C595.75,-396 563.25,-396 563.25,-396 557.25,-396 551.25,-390 551.25,-384 551.25,-384 551.25,-372 551.25,-372 551.25,-366 557.25,-360 563.25,-360 563.25,-360 595.75,-360 595.75,-360 601.75,-360 607.75,-366 607.75,-372 607.75,-372 607.75,-384 607.75,-384 607.75,-390 601.75,-396 595.75,-396"/>
<text text-anchor="middle" x="579.5" y="-374.88" font-family="sans" font-size="10.00">collapse</text>
</g>
<!-- 9&#45;&gt;0 -->
<g id="edge7" class="edge">
<title>9&#45;&gt;0</title>
<path fill="none" stroke="grey" stroke-width="2" d="M590.74,-359.41C606.3,-333.33 632.5,-282.37 632.5,-235 632.5,-235 632.5,-235 632.5,-161 632.5,-60.01 481.44,-30.59 407,-22.22"/>
<polygon fill="grey" stroke="grey" stroke-width="2" points="407.78,-18.78 397.48,-21.24 407.06,-25.75 407.78,-18.78"/>
</g>
<!-- 9&#45;&gt;8 -->
<g id="edge18" class="edge">
<title>9&#45;&gt;8</title>
<path fill="none" stroke="grey" stroke-width="2" d="M550.51,-363.89C547.47,-362.56 544.43,-361.24 541.5,-360 501.83,-343.2 489.71,-343.89 451.5,-324 415.42,-305.22 376.86,-279.37 350.04,-260.37"/>
<polygon fill="grey" stroke="grey" stroke-width="2" points="352.3,-257.68 342.13,-254.7 348.22,-263.37 352.3,-257.68"/>
</g>
<!-- 33 -->
<g id="node34" class="node">
<title>33</title>
<path fill="none" stroke="#56a2d8" stroke-width="2" d="M540.38,-324C540.38,-324 472.62,-324 472.62,-324 466.62,-324 460.62,-318 460.62,-312 460.62,-312 460.62,-300 460.62,-300 460.62,-294 466.62,-288 472.62,-288 472.62,-288 540.38,-288 540.38,-288 546.38,-288 552.38,-294 552.38,-300 552.38,-300 552.38,-312 552.38,-312 552.38,-318 546.38,-324 540.38,-324"/>
<text text-anchor="middle" x="506.5" y="-302.88" font-family="sans" font-size="10.00">pigeon_process</text>
</g>
<!-- 9&#45;&gt;33 -->
<g id="edge48" class="edge">
<title>9&#45;&gt;33</title>
<path fill="none" stroke="grey" stroke-width="2" d="M561.08,-359.34C553.01,-351.6 543.37,-342.36 534.46,-333.81"/>
<polygon fill="grey" stroke="grey" stroke-width="2" points="536.99,-331.39 527.35,-327 532.15,-336.44 536.99,-331.39"/>
</g>
<!-- 40 -->
<g id="node41" class="node">
<title>40</title>
<path fill="none" stroke="#56d863" stroke-width="2" d="M592.88,-252C592.88,-252 510.12,-252 510.12,-252 504.12,-252 498.12,-246 498.12,-240 498.12,-240 498.12,-228 498.12,-228 498.12,-222 504.12,-216 510.12,-216 510.12,-216 592.88,-216 592.88,-216 598.88,-216 604.88,-222 604.88,-228 604.88,-228 604.88,-240 604.88,-240 604.88,-246 598.88,-252 592.88,-252"/>
<text text-anchor="middle" x="551.5" y="-230.88" font-family="sans" font-size="10.00">isoranker_analysis</text>
</g>
<!-- 9&#45;&gt;40 -->
<g id="edge57" class="edge">
<title>9&#45;&gt;40</title>
<path fill="none" stroke="grey" stroke-width="2" d="M575.95,-359.02C571.3,-335.44 563.08,-293.73 557.46,-265.25"/>
<polygon fill="grey" stroke="grey" stroke-width="2" points="560.97,-264.94 555.6,-255.81 554.1,-266.3 560.97,-264.94"/>
</g>
<!-- 10 -->
<g id="node11" class="node">
<title>10</title>
<path fill="none" stroke="#56d87b" stroke-width="2" d="M553.5,-468C553.5,-468 471.5,-468 471.5,-468 465.5,-468 459.5,-462 459.5,-456 459.5,-456 459.5,-444 459.5,-444 459.5,-438 465.5,-432 471.5,-432 471.5,-432 553.5,-432 553.5,-432 559.5,-432 565.5,-438 565.5,-444 565.5,-444 565.5,-456 565.5,-456 565.5,-462 559.5,-468 553.5,-468"/>
<text text-anchor="middle" x="512.5" y="-446.88" font-family="sans" font-size="10.00">merge_all_aligned</text>
</g>
<!-- 10&#45;&gt;9 -->
<g id="edge23" class="edge">
<title>10&#45;&gt;9</title>
<path fill="none" stroke="grey" stroke-width="2" d="M529.41,-431.34C536.73,-423.69 545.47,-414.56 553.58,-406.08"/>
<polygon fill="grey" stroke="grey" stroke-width="2" points="555.89,-408.73 560.27,-399.09 550.83,-403.89 555.89,-408.73"/>
</g>
<!-- 11 -->
<g id="node12" class="node">
<title>11</title>
<path fill="none" stroke="#d8a456" stroke-width="2" d="M202,-540C202,-540 129,-540 129,-540 123,-540 117,-534 117,-528 117,-528 117,-516 117,-516 117,-510 123,-504 129,-504 129,-504 202,-504 202,-504 208,-504 214,-510 214,-516 214,-516 214,-528 214,-528 214,-534 208,-540 202,-540"/>
<text text-anchor="middle" x="165.5" y="-518.88" font-family="sans" font-size="10.00">label_transcripts</text>
</g>
<!-- 11&#45;&gt;10 -->
<g id="edge24" class="edge">
<title>11&#45;&gt;10</title>
<path fill="none" stroke="grey" stroke-width="2" d="M214.77,-506.18C217.71,-505.41 220.64,-504.68 223.5,-504 264.76,-494.2 374.33,-474.77 446.08,-462.36"/>
<polygon fill="grey" stroke="grey" stroke-width="2" points="446.33,-465.87 455.58,-460.72 445.14,-458.97 446.33,-465.87"/>
</g>
<!-- 12 -->
<g id="node13" class="node">
<title>12</title>
<path fill="none" stroke="#56b9d8" stroke-width="2" d="M177.5,-612C177.5,-612 147.5,-612 147.5,-612 141.5,-612 135.5,-606 135.5,-600 135.5,-600 135.5,-588 135.5,-588 135.5,-582 141.5,-576 147.5,-576 147.5,-576 177.5,-576 177.5,-576 183.5,-576 189.5,-582 189.5,-588 189.5,-588 189.5,-600 189.5,-600 189.5,-606 183.5,-612 177.5,-612"/>
<text text-anchor="middle" x="162.5" y="-590.88" font-family="sans" font-size="10.00">align</text>
</g>
<!-- 12&#45;&gt;11 -->
<g id="edge26" class="edge">
<title>12&#45;&gt;11</title>
<path fill="none" stroke="grey" stroke-width="2" d="M163.26,-575.34C163.54,-568.75 163.87,-561.08 164.19,-553.67"/>
<polygon fill="grey" stroke="grey" stroke-width="2" points="167.67,-554.07 164.6,-543.93 160.68,-553.77 167.67,-554.07"/>
</g>
<!-- 13 -->
<g id="node14" class="node">
<title>13</title>
<path fill="none" stroke="#56d8a9" stroke-width="2" d="M175.5,-684C175.5,-684 145.5,-684 145.5,-684 139.5,-684 133.5,-678 133.5,-672 133.5,-672 133.5,-660 133.5,-660 133.5,-654 139.5,-648 145.5,-648 145.5,-648 175.5,-648 175.5,-648 181.5,-648 187.5,-654 187.5,-660 187.5,-660 187.5,-672 187.5,-672 187.5,-678 181.5,-684 175.5,-684"/>
<text text-anchor="middle" x="160.5" y="-662.88" font-family="sans" font-size="10.00">cluster</text>
</g>
<!-- 13&#45;&gt;12 -->
<g id="edge27" class="edge">
<title>13&#45;&gt;12</title>
<path fill="none" stroke="grey" stroke-width="2" d="M161,-647.34C161.19,-640.75 161.41,-633.08 161.62,-625.67"/>
<polygon fill="grey" stroke="grey" stroke-width="2" points="165.11,-626.02 161.9,-615.93 158.12,-625.82 165.11,-626.02"/>
</g>
<!-- 14&#45;&gt;13 -->
<g id="edge28" class="edge">
<title>14&#45;&gt;13</title>
<path fill="none" stroke="grey" stroke-width="2" d="M159,-719.34C159.19,-712.75 159.41,-705.08 159.62,-697.67"/>
<polygon fill="grey" stroke="grey" stroke-width="2" points="163.11,-698.02 159.9,-687.93 156.12,-697.82 163.11,-698.02"/>
</g>
<!-- 15 -->
<g id="node16" class="node">
<title>15</title>
<path fill="none" stroke="#afd856" stroke-width="2" d="M321.88,-828C321.88,-828 197.12,-828 197.12,-828 191.12,-828 185.12,-822 185.12,-816 185.12,-816 185.12,-804 185.12,-804 185.12,-798 191.12,-792 197.12,-792 197.12,-792 321.88,-792 321.88,-792 327.88,-792 333.88,-798 333.88,-804 333.88,-804 333.88,-816 333.88,-816 333.88,-822 327.88,-828 321.88,-828"/>
<text text-anchor="middle" x="259.5" y="-806.88" font-family="sans" font-size="10.00">label_reads_with_condition</text>
</g>
<!-- 15&#45;&gt;14 -->
<g id="edge30" class="edge">
<title>15&#45;&gt;14</title>
<path fill="none" stroke="grey" stroke-width="2" d="M233.75,-791.15C221.88,-782.93 207.58,-773.02 194.66,-764.06"/>
<polygon fill="grey" stroke="grey" stroke-width="2" points="196.9,-761.36 186.69,-758.54 192.91,-767.11 196.9,-761.36"/>
</g>
<!-- 27 -->
<g id="node28" class="node">
<title>27</title>
<path fill="none" stroke="#56d0d8" stroke-width="2" d="M293.12,-756C293.12,-756 235.88,-756 235.88,-756 229.88,-756 223.88,-750 223.88,-744 223.88,-744 223.88,-732 223.88,-732 223.88,-726 229.88,-720 235.88,-720 235.88,-720 293.12,-720 293.12,-720 299.12,-720 305.12,-726 305.12,-732 305.12,-732 305.12,-744 305.12,-744 305.12,-750 299.12,-756 293.12,-756"/>
<text text-anchor="middle" x="264.5" y="-734.88" font-family="sans" font-size="10.00">align_sample</text>
</g>
<!-- 15&#45;&gt;27 -->
<g id="edge42" class="edge">
<title>15&#45;&gt;27</title>
<path fill="none" stroke="grey" stroke-width="2" d="M260.76,-791.34C261.23,-784.75 261.78,-777.08 262.31,-769.67"/>
<polygon fill="grey" stroke="grey" stroke-width="2" points="265.78,-770.15 263.01,-759.92 258.8,-769.65 265.78,-770.15"/>
</g>
<!-- 16 -->
<g id="node17" class="node">
<title>16</title>
<path fill="none" stroke="#d86e56" stroke-width="2" d="M323,-923C323,-923 196,-923 196,-923 190,-923 184,-917 184,-911 184,-911 184,-876 184,-876 184,-870 190,-864 196,-864 196,-864 323,-864 323,-864 329,-864 335,-870 335,-876 335,-876 335,-911 335,-911 335,-917 329,-923 323,-923"/>
<text text-anchor="middle" x="259.5" y="-909.5" font-family="sans" font-size="10.00">merge_individual_condition</text>
<text text-anchor="middle" x="259.5" y="-896.75" font-family="sans" font-size="10.00">condition: untreated</text>
<text text-anchor="middle" x="259.5" y="-884" font-family="sans" font-size="10.00">individual: test_ind_1</text>
<text text-anchor="middle" x="259.5" y="-871.25" font-family="sans" font-size="10.00">label: noncyclo_s344</text>
</g>
<!-- 16&#45;&gt;15 -->
<g id="edge31" class="edge">
<title>16&#45;&gt;15</title>
<path fill="none" stroke="grey" stroke-width="2" d="M259.5,-863.08C259.5,-856.07 259.5,-848.59 259.5,-841.54"/>
<polygon fill="grey" stroke="grey" stroke-width="2" points="263,-841.79 259.5,-831.79 256,-841.79 263,-841.79"/>
</g>
<!-- 17 -->
<g id="node18" class="node">
<title>17</title>
<path fill="none" stroke="#d8a456" stroke-width="2" d="M549,-540C549,-540 476,-540 476,-540 470,-540 464,-534 464,-528 464,-528 464,-516 464,-516 464,-510 470,-504 476,-504 476,-504 549,-504 549,-504 555,-504 561,-510 561,-516 561,-516 561,-528 561,-528 561,-534 555,-540 549,-540"/>
<text text-anchor="middle" x="512.5" y="-518.88" font-family="sans" font-size="10.00">label_transcripts</text>
</g>
<!-- 17&#45;&gt;10 -->
<g id="edge25" class="edge">
<title>17&#45;&gt;10</title>
<path fill="none" stroke="grey" stroke-width="2" d="M512.5,-503.34C512.5,-496.75 512.5,-489.08 512.5,-481.67"/>
<polygon fill="grey" stroke="grey" stroke-width="2" points="516,-481.93 512.5,-471.93 509,-481.93 516,-481.93"/>
</g>
<!-- 18 -->
<g id="node19" class="node">
<title>18</title>
<path fill="none" stroke="#56b9d8" stroke-width="2" d="M527.5,-612C527.5,-612 497.5,-612 497.5,-612 491.5,-612 485.5,-606 485.5,-600 485.5,-600 485.5,-588 485.5,-588 485.5,-582 491.5,-576 497.5,-576 497.5,-576 527.5,-576 527.5,-576 533.5,-576 539.5,-582 539.5,-588 539.5,-588 539.5,-600 539.5,-600 539.5,-606 533.5,-612 527.5,-612"/>
<text text-anchor="middle" x="512.5" y="-590.88" font-family="sans" font-size="10.00">align</text>
</g>
<!-- 18&#45;&gt;17 -->
<g id="edge32" class="edge">
<title>18&#45;&gt;17</title>
<path fill="none" stroke="grey" stroke-width="2" d="M512.5,-575.34C512.5,-568.75 512.5,-561.08 512.5,-553.67"/>
<polygon fill="grey" stroke="grey" stroke-width="2" points="516,-553.93 512.5,-543.93 509,-553.93 516,-553.93"/>
</g>
<!-- 19 -->
<g id="node20" class="node">
<title>19</title>
<path fill="none" stroke="#56d8a9" stroke-width="2" d="M527.5,-684C527.5,-684 497.5,-684 497.5,-684 491.5,-684 485.5,-678 485.5,-672 485.5,-672 485.5,-660 485.5,-660 485.5,-654 491.5,-648 497.5,-648 497.5,-648 527.5,-648 527.5,-648 533.5,-648 539.5,-654 539.5,-660 539.5,-660 539.5,-672 539.5,-672 539.5,-678 533.5,-684 527.5,-684"/>
<text text-anchor="middle" x="512.5" y="-662.88" font-family="sans" font-size="10.00">cluster</text>
</g>
<!-- 19&#45;&gt;18 -->
<g id="edge33" class="edge">
<title>19&#45;&gt;18</title>
<path fill="none" stroke="grey" stroke-width="2" d="M512.5,-647.34C512.5,-640.75 512.5,-633.08 512.5,-625.67"/>
<polygon fill="grey" stroke="grey" stroke-width="2" points="516,-625.93 512.5,-615.93 509,-625.93 516,-625.93"/>
</g>
<!-- 20 -->
<g id="node21" class="node">
<title>20</title>
<path fill="none" stroke="#568ad8" stroke-width="2" d="M543.5,-756C543.5,-756 473.5,-756 473.5,-756 467.5,-756 461.5,-750 461.5,-744 461.5,-744 461.5,-732 461.5,-732 461.5,-726 467.5,-720 473.5,-720 473.5,-720 543.5,-720 543.5,-720 549.5,-720 555.5,-726 555.5,-732 555.5,-732 555.5,-744 555.5,-744 555.5,-750 549.5,-756 543.5,-756"/>
<text text-anchor="middle" x="508.5" y="-734.88" font-family="sans" font-size="10.00">merge_samples</text>
</g>
<!-- 20&#45;&gt;19 -->
<g id="edge34" class="edge">
<title>20&#45;&gt;19</title>
<path fill="none" stroke="grey" stroke-width="2" d="M509.51,-719.34C509.89,-712.75 510.32,-705.08 510.75,-697.67"/>
<polygon fill="grey" stroke="grey" stroke-width="2" points="514.23,-698.11 511.3,-687.92 507.24,-697.71 514.23,-698.11"/>
</g>
<!-- 21 -->
<g id="node22" class="node">
<title>21</title>
<path fill="none" stroke="#afd856" stroke-width="2" d="M501.88,-828C501.88,-828 377.12,-828 377.12,-828 371.12,-828 365.12,-822 365.12,-816 365.12,-816 365.12,-804 365.12,-804 365.12,-798 371.12,-792 377.12,-792 377.12,-792 501.88,-792 501.88,-792 507.88,-792 513.88,-798 513.88,-804 513.88,-804 513.88,-816 513.88,-816 513.88,-822 507.88,-828 501.88,-828"/>
<text text-anchor="middle" x="439.5" y="-806.88" font-family="sans" font-size="10.00">label_reads_with_condition</text>
</g>
<!-- 21&#45;&gt;20 -->
<g id="edge35" class="edge">
<title>21&#45;&gt;20</title>
<path fill="none" stroke="grey" stroke-width="2" d="M456.91,-791.34C464.45,-783.69 473.45,-774.56 481.81,-766.08"/>
<polygon fill="grey" stroke="grey" stroke-width="2" points="484.2,-768.64 488.73,-759.06 479.22,-763.72 484.2,-768.64"/>
</g>
<!-- 31 -->
<g id="node32" class="node">
<title>31</title>
<path fill="none" stroke="#56d0d8" stroke-width="2" d="M455.12,-684C455.12,-684 397.88,-684 397.88,-684 391.88,-684 385.88,-678 385.88,-672 385.88,-672 385.88,-660 385.88,-660 385.88,-654 391.88,-648 397.88,-648 397.88,-648 455.12,-648 455.12,-648 461.12,-648 467.12,-654 467.12,-660 467.12,-660 467.12,-672 467.12,-672 467.12,-678 461.12,-684 455.12,-684"/>
<text text-anchor="middle" x="426.5" y="-662.88" font-family="sans" font-size="10.00">align_sample</text>
</g>
<!-- 21&#45;&gt;31 -->
<g id="edge47" class="edge">
<title>21&#45;&gt;31</title>
<path fill="none" stroke="grey" stroke-width="2" d="M437.85,-791.02C435.7,-767.54 431.91,-726.11 429.3,-697.64"/>
<polygon fill="grey" stroke="grey" stroke-width="2" points="432.81,-697.49 428.41,-687.85 425.84,-698.13 432.81,-697.49"/>
</g>
<!-- 22 -->
<g id="node23" class="node">
<title>22</title>
<path fill="none" stroke="#d86e56" stroke-width="2" d="M503,-923C503,-923 376,-923 376,-923 370,-923 364,-917 364,-911 364,-911 364,-876 364,-876 364,-870 370,-864 376,-864 376,-864 503,-864 503,-864 509,-864 515,-870 515,-876 515,-876 515,-911 515,-911 515,-917 509,-923 503,-923"/>
<text text-anchor="middle" x="439.5" y="-909.5" font-family="sans" font-size="10.00">merge_individual_condition</text>
<text text-anchor="middle" x="439.5" y="-896.75" font-family="sans" font-size="10.00">condition: untreated</text>
<text text-anchor="middle" x="439.5" y="-884" font-family="sans" font-size="10.00">individual: UDN633333</text>
<text text-anchor="middle" x="439.5" y="-871.25" font-family="sans" font-size="10.00">label: non&#45;cyclo_PS00115</text>
</g>
<!-- 22&#45;&gt;21 -->
<g id="edge36" class="edge">
<title>22&#45;&gt;21</title>
<path fill="none" stroke="grey" stroke-width="2" d="M439.5,-863.08C439.5,-856.07 439.5,-848.59 439.5,-841.54"/>
<polygon fill="grey" stroke="grey" stroke-width="2" points="443,-841.79 439.5,-831.79 436,-841.79 443,-841.79"/>
</g>
<!-- 23&#45;&gt;8 -->
<g id="edge19" class="edge">
<title>23&#45;&gt;8</title>
<path fill="none" stroke="grey" stroke-width="2" d="M126.99,-289.98C163.65,-279.29 213.15,-264.85 252.22,-253.46"/>
<polygon fill="grey" stroke="grey" stroke-width="2" points="252.99,-256.88 261.61,-250.72 251.03,-250.16 252.99,-256.88"/>
</g>
<!-- 24 -->
<g id="node25" class="node">
<title>24</title>
<path fill="none" stroke="#78d856" stroke-width="2" d="M234.25,-324C234.25,-324 156.75,-324 156.75,-324 150.75,-324 144.75,-318 144.75,-312 144.75,-312 144.75,-300 144.75,-300 144.75,-294 150.75,-288 156.75,-288 156.75,-288 234.25,-288 234.25,-288 240.25,-288 246.25,-294 246.25,-300 246.25,-300 246.25,-312 246.25,-312 246.25,-318 240.25,-324 234.25,-324"/>
<text text-anchor="middle" x="195.5" y="-302.88" font-family="sans" font-size="10.00">extract_read_info</text>
</g>
<!-- 24&#45;&gt;8 -->
<g id="edge20" class="edge">
<title>24&#45;&gt;8</title>
<path fill="none" stroke="grey" stroke-width="2" d="M226.09,-287.15C240.62,-278.68 258.2,-268.42 273.92,-259.25"/>
<polygon fill="grey" stroke="grey" stroke-width="2" points="275.48,-262.4 282.35,-254.34 271.95,-256.35 275.48,-262.4"/>
</g>
<!-- 25&#45;&gt;24 -->
<g id="edge38" class="edge">
<title>25&#45;&gt;24</title>
<path fill="none" stroke="grey" stroke-width="2" d="M195.5,-359.34C195.5,-352.75 195.5,-345.08 195.5,-337.67"/>
<polygon fill="grey" stroke="grey" stroke-width="2" points="199,-337.93 195.5,-327.93 192,-337.93 199,-337.93"/>
</g>
<!-- 25&#45;&gt;35 -->
<g id="edge50" class="edge">
<title>25&#45;&gt;35</title>
<path fill="none" stroke="grey" stroke-width="2" d="M138.88,-361.19C86.84,-346.53 17.45,-326.6 15.5,-324 5.92,-311.19 7.52,-301.87 15.5,-288 47.62,-232.16 115.33,-198.95 166.23,-180.96"/>
<polygon fill="grey" stroke="grey" stroke-width="2" points="167.24,-184.32 175.59,-177.79 164.99,-177.69 167.24,-184.32"/>
</g>
<!-- 26 -->
<g id="node27" class="node">
<title>26</title>
<path fill="none" stroke="#56d892" stroke-width="2" d="M284.88,-540C284.88,-540 244.12,-540 244.12,-540 238.12,-540 232.12,-534 232.12,-528 232.12,-528 232.12,-516 232.12,-516 232.12,-510 238.12,-504 244.12,-504 244.12,-504 284.88,-504 284.88,-504 290.88,-504 296.88,-510 296.88,-516 296.88,-516 296.88,-528 296.88,-528 296.88,-534 290.88,-540 284.88,-540"/>
<text text-anchor="middle" x="264.5" y="-518.88" font-family="sans" font-size="10.00">modify_rg</text>
</g>
<!-- 26&#45;&gt;25 -->
<g id="edge39" class="edge">
<title>26&#45;&gt;25</title>
<path fill="none" stroke="grey" stroke-width="2" d="M256.61,-503.14C248.56,-485.07 235.56,-456.4 223.5,-432 219.63,-424.16 215.28,-415.76 211.19,-408.01"/>
<polygon fill="grey" stroke="grey" stroke-width="2" points="214.29,-406.39 206.5,-399.21 208.12,-409.68 214.29,-406.39"/>
</g>
<!-- 27&#45;&gt;26 -->
<g id="edge41" class="edge">
<title>27&#45;&gt;26</title>
<path fill="none" stroke="grey" stroke-width="2" d="M264.5,-719.12C264.5,-682.62 264.5,-599.13 264.5,-553.74"/>
<polygon fill="grey" stroke="grey" stroke-width="2" points="268,-554 264.5,-544 261,-554 268,-554"/>
</g>
<!-- 28 -->
<g id="node29" class="node">
<title>28</title>
<path fill="none" stroke="#78d856" stroke-width="2" d="M354.25,-324C354.25,-324 276.75,-324 276.75,-324 270.75,-324 264.75,-318 264.75,-312 264.75,-312 264.75,-300 264.75,-300 264.75,-294 270.75,-288 276.75,-288 276.75,-288 354.25,-288 354.25,-288 360.25,-288 366.25,-294 366.25,-300 366.25,-300 366.25,-312 366.25,-312 366.25,-318 360.25,-324 354.25,-324"/>
<text text-anchor="middle" x="315.5" y="-302.88" font-family="sans" font-size="10.00">extract_read_info</text>
</g>
<!-- 28&#45;&gt;8 -->
<g id="edge21" class="edge">
<title>28&#45;&gt;8</title>
<path fill="none" stroke="grey" stroke-width="2" d="M315.5,-287.34C315.5,-280.75 315.5,-273.08 315.5,-265.67"/>
<polygon fill="grey" stroke="grey" stroke-width="2" points="319,-265.93 315.5,-255.93 312,-265.93 319,-265.93"/>
</g>
<!-- 29 -->
<g id="node30" class="node">
<title>29</title>
<path fill="none" stroke="#d8d356" stroke-width="2" d="M378.12,-396C378.12,-396 290.88,-396 290.88,-396 284.88,-396 278.88,-390 278.88,-384 278.88,-384 278.88,-372 278.88,-372 278.88,-366 284.88,-360 290.88,-360 290.88,-360 378.12,-360 378.12,-360 384.12,-360 390.12,-366 390.12,-372 390.12,-372 390.12,-384 390.12,-384 390.12,-390 384.12,-396 378.12,-396"/>
<text text-anchor="middle" x="334.5" y="-374.88" font-family="sans" font-size="10.00">whatshap_haplotag</text>
</g>
<!-- 29&#45;&gt;28 -->
<g id="edge43" class="edge">
<title>29&#45;&gt;28</title>
<path fill="none" stroke="grey" stroke-width="2" d="M329.71,-359.34C327.9,-352.67 325.78,-344.89 323.75,-337.39"/>
<polygon fill="grey" stroke="grey" stroke-width="2" points="327.15,-336.56 321.15,-327.82 320.39,-338.39 327.15,-336.56"/>
</g>
<!-- 29&#45;&gt;36 -->
<g id="edge52" class="edge">
<title>29&#45;&gt;36</title>
<path fill="none" stroke="grey" stroke-width="2" d="M353.1,-359.2C361.7,-349.68 370.99,-337.21 375.5,-324 379.08,-313.54 380.1,-243.09 374.5,-216 372.87,-208.12 370.09,-199.95 367.03,-192.44"/>
<polygon fill="grey" stroke="grey" stroke-width="2" points="370.27,-191.11 363.02,-183.38 363.87,-193.94 370.27,-191.11"/>
</g>
<!-- 30 -->
<g id="node31" class="node">
<title>30</title>
<path fill="none" stroke="#56d892" stroke-width="2" d="M446.88,-612C446.88,-612 406.12,-612 406.12,-612 400.12,-612 394.12,-606 394.12,-600 394.12,-600 394.12,-588 394.12,-588 394.12,-582 400.12,-576 406.12,-576 406.12,-576 446.88,-576 446.88,-576 452.88,-576 458.88,-582 458.88,-588 458.88,-588 458.88,-600 458.88,-600 458.88,-606 452.88,-612 446.88,-612"/>
<text text-anchor="middle" x="426.5" y="-590.88" font-family="sans" font-size="10.00">modify_rg</text>
</g>
<!-- 30&#45;&gt;29 -->
<g id="edge44" class="edge">
<title>30&#45;&gt;29</title>
<path fill="none" stroke="grey" stroke-width="2" d="M428.8,-575.12C431.94,-543.78 434.4,-477.89 407.5,-432 401.09,-421.07 391.45,-411.75 381.25,-404.13"/>
<polygon fill="grey" stroke="grey" stroke-width="2" points="383.26,-401.26 373.03,-398.5 379.3,-407.04 383.26,-401.26"/>
</g>
<!-- 31&#45;&gt;30 -->
<g id="edge46" class="edge">
<title>31&#45;&gt;30</title>
<path fill="none" stroke="grey" stroke-width="2" d="M426.5,-647.34C426.5,-640.75 426.5,-633.08 426.5,-625.67"/>
<polygon fill="grey" stroke="grey" stroke-width="2" points="430,-625.93 426.5,-615.93 423,-625.93 430,-625.93"/>
</g>
<!-- 32 -->
<g id="node33" class="node">
<title>32</title>
<path fill="none" stroke="#5673d8" stroke-width="2" d="M386.75,-468C386.75,-468 282.25,-468 282.25,-468 276.25,-468 270.25,-462 270.25,-456 270.25,-456 270.25,-444 270.25,-444 270.25,-438 276.25,-432 282.25,-432 282.25,-432 386.75,-432 386.75,-432 392.75,-432 398.75,-438 398.75,-444 398.75,-444 398.75,-456 398.75,-456 398.75,-462 392.75,-468 386.75,-468"/>
<text text-anchor="middle" x="334.5" y="-453.25" font-family="sans" font-size="10.00">modify_vcf</text>
<text text-anchor="middle" x="334.5" y="-440.5" font-family="sans" font-size="10.00">individual: UDN633333</text>
</g>
<!-- 32&#45;&gt;29 -->
<g id="edge45" class="edge">
<title>32&#45;&gt;29</title>
<path fill="none" stroke="grey" stroke-width="2" d="M334.5,-431.34C334.5,-424.75 334.5,-417.08 334.5,-409.67"/>
<polygon fill="grey" stroke="grey" stroke-width="2" points="338,-409.93 334.5,-399.93 331,-409.93 338,-409.93"/>
</g>
<!-- 33&#45;&gt;0 -->
<g id="edge9" class="edge">
<title>33&#45;&gt;0</title>
<path fill="none" stroke="grey" stroke-width="2" d="M500.74,-287.32C484.03,-236.25 435.92,-90.88 423.5,-72 417.2,-62.43 408.82,-53.38 400.43,-45.56"/>
<polygon fill="grey" stroke="grey" stroke-width="2" points="402.78,-42.97 392.96,-38.99 398.16,-48.22 402.78,-42.97"/>
</g>
<!-- 33&#45;&gt;8 -->
<g id="edge22" class="edge">
<title>33&#45;&gt;8</title>
<path fill="none" stroke="grey" stroke-width="2" d="M459.78,-287.88C434.68,-278.68 403.45,-267.23 376.47,-257.34"/>
<polygon fill="grey" stroke="grey" stroke-width="2" points="377.84,-254.12 367.25,-253.97 375.43,-260.69 377.84,-254.12"/>
</g>
<!-- 33&#45;&gt;40 -->
<g id="edge58" class="edge">
<title>33&#45;&gt;40</title>
<path fill="none" stroke="grey" stroke-width="2" d="M517.86,-287.34C522.46,-280.18 527.89,-271.73 533.03,-263.73"/>
<polygon fill="grey" stroke="grey" stroke-width="2" points="535.89,-265.75 538.35,-255.45 530,-261.97 535.89,-265.75"/>
</g>
<!-- 34 -->
<g id="node35" class="node">
<title>34</title>
<path fill="none" stroke="#56d8c9" stroke-width="2" d="M520.88,-396C520.88,-396 420.12,-396 420.12,-396 414.12,-396 408.12,-390 408.12,-384 408.12,-384 408.12,-372 408.12,-372 408.12,-366 414.12,-360 420.12,-360 420.12,-360 520.88,-360 520.88,-360 526.88,-360 532.88,-366 532.88,-372 532.88,-372 532.88,-384 532.88,-384 532.88,-390 526.88,-396 520.88,-396"/>
<text text-anchor="middle" x="470.5" y="-374.88" font-family="sans" font-size="10.00">pigeon_prepare_annot</text>
</g>
<!-- 34&#45;&gt;33 -->
<g id="edge49" class="edge">
<title>34&#45;&gt;33</title>
<path fill="none" stroke="grey" stroke-width="2" d="M479.58,-359.34C483.18,-352.34 487.41,-344.12 491.44,-336.28"/>
<polygon fill="grey" stroke="grey" stroke-width="2" points="494.45,-338.09 495.91,-327.59 488.22,-334.89 494.45,-338.09"/>
</g>
<!-- 35&#45;&gt;0 -->
<g id="edge2" class="edge">
<title>35&#45;&gt;0</title>
<path fill="none" stroke="grey" stroke-width="2" d="M243.6,-143.13C257.56,-124.56 280.75,-95.03 303.5,-72 312.67,-62.72 323.31,-53.31 333.21,-45.06"/>
<polygon fill="grey" stroke="grey" stroke-width="2" points="335.29,-47.88 340.81,-38.84 330.86,-42.46 335.29,-47.88"/>
</g>
<!-- 38 -->
<g id="node39" class="node">
<title>38</title>
<path fill="none" stroke="#d8bc56" stroke-width="2" d="M244.5,-108C244.5,-108 214.5,-108 214.5,-108 208.5,-108 202.5,-102 202.5,-96 202.5,-96 202.5,-84 202.5,-84 202.5,-78 208.5,-72 214.5,-72 214.5,-72 244.5,-72 244.5,-72 250.5,-72 256.5,-78 256.5,-84 256.5,-84 256.5,-96 256.5,-96 256.5,-102 250.5,-108 244.5,-108"/>
<text text-anchor="middle" x="229.5" y="-86.88" font-family="sans" font-size="10.00">qc_flnc</text>
</g>
<!-- 35&#45;&gt;38 -->
<g id="edge55" class="edge">
<title>35&#45;&gt;38</title>
<path fill="none" stroke="grey" stroke-width="2" d="M230.25,-143.34C230.15,-136.75 230.04,-129.08 229.94,-121.67"/>
<polygon fill="grey" stroke="grey" stroke-width="2" points="233.44,-121.88 229.8,-111.93 226.44,-121.98 233.44,-121.88"/>
</g>
<!-- 36&#45;&gt;0 -->
<g id="edge3" class="edge">
<title>36&#45;&gt;0</title>
<path fill="none" stroke="grey" stroke-width="2" d="M362.28,-143.45C367.32,-133.41 372.93,-120.37 375.5,-108 379.49,-88.8 377.35,-66.89 374.16,-49.62"/>
<polygon fill="grey" stroke="grey" stroke-width="2" points="377.59,-48.92 372.1,-39.86 370.74,-50.37 377.59,-48.92"/>
</g>
<!-- 39 -->
<g id="node40" class="node">
<title>39</title>
<path fill="none" stroke="#d8bc56" stroke-width="2" d="M354.5,-108C354.5,-108 324.5,-108 324.5,-108 318.5,-108 312.5,-102 312.5,-96 312.5,-96 312.5,-84 312.5,-84 312.5,-78 318.5,-72 324.5,-72 324.5,-72 354.5,-72 354.5,-72 360.5,-72 366.5,-78 366.5,-84 366.5,-84 366.5,-96 366.5,-96 366.5,-102 360.5,-108 354.5,-108"/>
<text text-anchor="middle" x="339.5" y="-86.88" font-family="sans" font-size="10.00">qc_flnc</text>
</g>
<!-- 36&#45;&gt;39 -->
<g id="edge56" class="edge">
<title>36&#45;&gt;39</title>
<path fill="none" stroke="grey" stroke-width="2" d="M349.22,-143.34C348,-136.75 346.57,-129.08 345.2,-121.67"/>
<polygon fill="grey" stroke="grey" stroke-width="2" points="348.64,-121.07 343.38,-111.88 341.76,-122.35 348.64,-121.07"/>
</g>
<!-- 37&#45;&gt;0 -->
<g id="edge4" class="edge">
<title>37&#45;&gt;0</title>
<path fill="none" stroke="grey" stroke-width="2" d="M185.24,-75.42C188,-74.21 190.79,-73.05 193.5,-72 238.12,-54.73 290.87,-39.25 326.3,-29.55"/>
<polygon fill="grey" stroke="grey" stroke-width="2" points="326.86,-33.02 335.59,-27.03 325.03,-26.26 326.86,-33.02"/>
</g>
<!-- 38&#45;&gt;0 -->
<g id="edge5" class="edge">
<title>38&#45;&gt;0</title>
<path fill="none" stroke="grey" stroke-width="2" d="M257.22,-74.83C277.37,-64.54 304.92,-50.46 327.31,-39.02"/>
<polygon fill="grey" stroke="grey" stroke-width="2" points="328.81,-42.19 336.12,-34.52 325.62,-35.96 328.81,-42.19"/>
</g>
<!-- 39&#45;&gt;0 -->
<g id="edge6" class="edge">
<title>39&#45;&gt;0</title>
<path fill="none" stroke="grey" stroke-width="2" d="M346.31,-71.34C348.95,-64.51 352.04,-56.5 354.99,-48.83"/>
<polygon fill="grey" stroke="grey" stroke-width="2" points="358.17,-50.32 358.51,-39.73 351.64,-47.8 358.17,-50.32"/>
</g>
<!-- 40&#45;&gt;0 -->
<g id="edge10" class="edge">
<title>40&#45;&gt;0</title>
<path fill="none" stroke="grey" stroke-width="2" d="M548.53,-215.15C542.27,-182.67 524.82,-113.45 484.5,-72 463.43,-50.34 431.92,-36.81 406.75,-28.84"/>
<polygon fill="grey" stroke="grey" stroke-width="2" points="407.75,-25.49 397.17,-26.02 405.77,-32.2 407.75,-25.49"/>
</g>
</g>
</svg>
