<?xml version="1.0" encoding="UTF-8" standalone="no"?>
<!DOCTYPE svg PUBLIC "-//W3C//DTD SVG 1.1//EN"
 "http://www.w3.org/Graphics/SVG/1.1/DTD/svg11.dtd">
<!-- Generated by graphviz version 12.0.0 (20240803.0821)
 -->
<!-- Title: snakemake_dag Pages: 1 -->
<svg width="296pt" height="836pt"
 viewBox="0.00 0.00 296.24 836.00" xmlns="http://www.w3.org/2000/svg" xmlns:xlink="http://www.w3.org/1999/xlink">
<g id="graph0" class="graph" transform="scale(1 1) rotate(0) translate(4 832)">
<title>snakemake_dag</title>
<polygon fill="white" stroke="none" points="-4,4 -4,-832 292.24,-832 292.24,4 -4,4"/>
<!-- 0 -->
<g id="node1" class="node">
<title>0</title>
<path fill="none" stroke="#56d863" stroke-width="2" d="M272.87,-36C272.87,-36 242.87,-36 242.87,-36 236.87,-36 230.87,-30 230.87,-24 230.87,-24 230.87,-12 230.87,-12 230.87,-6 236.87,0 242.87,0 242.87,0 272.87,0 272.87,0 278.87,0 284.87,-6 284.87,-12 284.87,-12 284.87,-24 284.87,-24 284.87,-30 278.87,-36 272.87,-36"/>
<text text-anchor="middle" x="257.87" y="-14.88" font-family="sans" font-size="10.00">all</text>
</g>
<!-- 1 -->
<g id="node2" class="node">
<title>1</title>
<path fill="none" stroke="#5673d8" stroke-width="2" d="M191,-108C191,-108 112.75,-108 112.75,-108 106.75,-108 100.75,-102 100.75,-96 100.75,-96 100.75,-84 100.75,-84 100.75,-78 106.75,-72 112.75,-72 112.75,-72 191,-72 191,-72 197,-72 203,-78 203,-84 203,-84 203,-96 203,-96 203,-102 197,-108 191,-108"/>
<text text-anchor="middle" x="151.87" y="-86.88" font-family="sans" font-size="10.00">add_tags_to_bam</text>
</g>
<!-- 1&#45;&gt;0 -->
<g id="edge4" class="edge">
<title>1&#45;&gt;0</title>
<path fill="none" stroke="grey" stroke-width="2" d="M178.89,-71.15C191.48,-62.84 206.66,-52.82 220.33,-43.79"/>
<polygon fill="grey" stroke="grey" stroke-width="2" points="221.96,-46.91 228.37,-38.48 218.1,-41.07 221.96,-46.91"/>
</g>
<!-- 2 -->
<g id="node3" class="node">
<title>2</title>
<path fill="none" stroke="#56d0d8" stroke-width="2" d="M100.5,-324C100.5,-324 13.25,-324 13.25,-324 7.25,-324 1.25,-318 1.25,-312 1.25,-312 1.25,-300 1.25,-300 1.25,-294 7.25,-288 13.25,-288 13.25,-288 100.5,-288 100.5,-288 106.5,-288 112.5,-294 112.5,-300 112.5,-300 112.5,-312 112.5,-312 112.5,-318 106.5,-324 100.5,-324"/>
<text text-anchor="middle" x="56.87" y="-302.88" font-family="sans" font-size="10.00">whatshap_haplotag</text>
</g>
<!-- 2&#45;&gt;1 -->
<g id="edge6" class="edge">
<title>2&#45;&gt;1</title>
<path fill="none" stroke="grey" stroke-width="2" d="M32.3,-287.2C21.73,-278.02 10.53,-265.84 4.87,-252 -1.18,-237.19 -1.84,-230.52 4.87,-216 25.55,-171.28 70.99,-136.68 105.91,-115.34"/>
<polygon fill="grey" stroke="grey" stroke-width="2" points="107.41,-118.52 114.23,-110.42 103.84,-112.5 107.41,-118.52"/>
</g>
<!-- 15 -->
<g id="node16" class="node">
<title>15</title>
<path fill="none" stroke="#9fd856" stroke-width="2" d="M103.62,-252C103.62,-252 26.12,-252 26.12,-252 20.12,-252 14.12,-246 14.12,-240 14.12,-240 14.12,-228 14.12,-228 14.12,-222 20.12,-216 26.12,-216 26.12,-216 103.62,-216 103.62,-216 109.62,-216 115.62,-222 115.62,-228 115.62,-228 115.62,-240 115.62,-240 115.62,-246 109.62,-252 103.62,-252"/>
<text text-anchor="middle" x="64.87" y="-230.88" font-family="sans" font-size="10.00">extract_read_info</text>
</g>
<!-- 2&#45;&gt;15 -->
<g id="edge21" class="edge">
<title>2&#45;&gt;15</title>
<path fill="none" stroke="grey" stroke-width="2" d="M58.89,-287.34C59.64,-280.75 60.52,-273.08 61.37,-265.67"/>
<polygon fill="grey" stroke="grey" stroke-width="2" points="64.82,-266.24 62.48,-255.91 57.87,-265.45 64.82,-266.24"/>
</g>
<!-- 3 -->
<g id="node4" class="node">
<title>3</title>
<path fill="none" stroke="#56d8a2" stroke-width="2" d="M100.25,-612C100.25,-612 59.5,-612 59.5,-612 53.5,-612 47.5,-606 47.5,-600 47.5,-600 47.5,-588 47.5,-588 47.5,-582 53.5,-576 59.5,-576 59.5,-576 100.25,-576 100.25,-576 106.25,-576 112.25,-582 112.25,-588 112.25,-588 112.25,-600 112.25,-600 112.25,-606 106.25,-612 100.25,-612"/>
<text text-anchor="middle" x="79.87" y="-590.88" font-family="sans" font-size="10.00">modify_rg</text>
</g>
<!-- 3&#45;&gt;2 -->
<g id="edge8" class="edge">
<title>3&#45;&gt;2</title>
<path fill="none" stroke="grey" stroke-width="2" d="M78.43,-575.11C74.61,-527.56 64.16,-397.6 59.35,-337.83"/>
<polygon fill="grey" stroke="grey" stroke-width="2" points="62.84,-337.59 58.55,-327.9 55.86,-338.15 62.84,-337.59"/>
</g>
<!-- 4 -->
<g id="node5" class="node">
<title>4</title>
<path fill="none" stroke="#d8d356" stroke-width="2" d="M124.5,-684C124.5,-684 67.25,-684 67.25,-684 61.25,-684 55.25,-678 55.25,-672 55.25,-672 55.25,-660 55.25,-660 55.25,-654 61.25,-648 67.25,-648 67.25,-648 124.5,-648 124.5,-648 130.5,-648 136.5,-654 136.5,-660 136.5,-660 136.5,-672 136.5,-672 136.5,-678 130.5,-684 124.5,-684"/>
<text text-anchor="middle" x="95.87" y="-662.88" font-family="sans" font-size="10.00">align_sample</text>
</g>
<!-- 4&#45;&gt;3 -->
<g id="edge9" class="edge">
<title>4&#45;&gt;3</title>
<path fill="none" stroke="grey" stroke-width="2" d="M91.83,-647.34C90.31,-640.67 88.53,-632.89 86.82,-625.39"/>
<polygon fill="grey" stroke="grey" stroke-width="2" points="90.28,-624.82 84.64,-615.85 83.45,-626.38 90.28,-624.82"/>
</g>
<!-- 5 -->
<g id="node6" class="node">
<title>5</title>
<path fill="none" stroke="#d8b456" stroke-width="2" d="M211.25,-756C211.25,-756 86.5,-756 86.5,-756 80.5,-756 74.5,-750 74.5,-744 74.5,-744 74.5,-732 74.5,-732 74.5,-726 80.5,-720 86.5,-720 86.5,-720 211.25,-720 211.25,-720 217.25,-720 223.25,-726 223.25,-732 223.25,-732 223.25,-744 223.25,-744 223.25,-750 217.25,-756 211.25,-756"/>
<text text-anchor="middle" x="148.87" y="-734.88" font-family="sans" font-size="10.00">label_reads_with_condition</text>
</g>
<!-- 5&#45;&gt;4 -->
<g id="edge10" class="edge">
<title>5&#45;&gt;4</title>
<path fill="none" stroke="grey" stroke-width="2" d="M135.5,-719.34C129.95,-712.01 123.38,-703.34 117.2,-695.18"/>
<polygon fill="grey" stroke="grey" stroke-width="2" points="120.08,-693.18 111.25,-687.32 114.5,-697.4 120.08,-693.18"/>
</g>
<!-- 14 -->
<g id="node15" class="node">
<title>14</title>
<path fill="none" stroke="#d87556" stroke-width="2" d="M244.87,-684C244.87,-684 174.87,-684 174.87,-684 168.87,-684 162.87,-678 162.87,-672 162.87,-672 162.87,-660 162.87,-660 162.87,-654 168.87,-648 174.87,-648 174.87,-648 244.87,-648 244.87,-648 250.87,-648 256.87,-654 256.87,-660 256.87,-660 256.87,-672 256.87,-672 256.87,-678 250.87,-684 244.87,-684"/>
<text text-anchor="middle" x="209.87" y="-662.88" font-family="sans" font-size="10.00">merge_samples</text>
</g>
<!-- 5&#45;&gt;14 -->
<g id="edge20" class="edge">
<title>5&#45;&gt;14</title>
<path fill="none" stroke="grey" stroke-width="2" d="M164.26,-719.34C170.79,-711.85 178.54,-702.95 185.8,-694.63"/>
<polygon fill="grey" stroke="grey" stroke-width="2" points="188.35,-697.02 192.28,-687.18 183.07,-692.42 188.35,-697.02"/>
</g>
<!-- 6 -->
<g id="node7" class="node">
<title>6</title>
<path fill="none" stroke="#d89556" stroke-width="2" d="M212.37,-828C212.37,-828 85.37,-828 85.37,-828 79.37,-828 73.37,-822 73.37,-816 73.37,-816 73.37,-804 73.37,-804 73.37,-798 79.37,-792 85.37,-792 85.37,-792 212.37,-792 212.37,-792 218.37,-792 224.37,-798 224.37,-804 224.37,-804 224.37,-816 224.37,-816 224.37,-822 218.37,-828 212.37,-828"/>
<text text-anchor="middle" x="148.87" y="-806.88" font-family="sans" font-size="10.00">merge_individual_condition</text>
</g>
<!-- 6&#45;&gt;5 -->
<g id="edge11" class="edge">
<title>6&#45;&gt;5</title>
<path fill="none" stroke="grey" stroke-width="2" d="M148.87,-791.34C148.87,-784.75 148.87,-777.08 148.87,-769.67"/>
<polygon fill="grey" stroke="grey" stroke-width="2" points="152.37,-769.93 148.87,-759.93 145.37,-769.93 152.37,-769.93"/>
</g>
<!-- 7 -->
<g id="node8" class="node">
<title>7</title>
<path fill="none" stroke="#d85656" stroke-width="2" d="M134.87,-396C134.87,-396 88.87,-396 88.87,-396 82.87,-396 76.87,-390 76.87,-384 76.87,-384 76.87,-372 76.87,-372 76.87,-366 82.87,-360 88.87,-360 88.87,-360 134.87,-360 134.87,-360 140.87,-360 146.87,-366 146.87,-372 146.87,-372 146.87,-384 146.87,-384 146.87,-390 140.87,-396 134.87,-396"/>
<text text-anchor="middle" x="111.87" y="-374.88" font-family="sans" font-size="10.00">modify_vcf</text>
</g>
<!-- 7&#45;&gt;2 -->
<g id="edge7" class="edge">
<title>7&#45;&gt;2</title>
<path fill="none" stroke="grey" stroke-width="2" d="M97.99,-359.34C92.17,-351.93 85.27,-343.14 78.79,-334.9"/>
<polygon fill="grey" stroke="grey" stroke-width="2" points="81.74,-332.98 72.81,-327.28 76.23,-337.31 81.74,-332.98"/>
</g>
<!-- 8 -->
<g id="node9" class="node">
<title>8</title>
<path fill="none" stroke="#bed856" stroke-width="2" d="M190.25,-180C190.25,-180 113.5,-180 113.5,-180 107.5,-180 101.5,-174 101.5,-168 101.5,-168 101.5,-156 101.5,-156 101.5,-150 107.5,-144 113.5,-144 113.5,-144 190.25,-144 190.25,-144 196.25,-144 202.25,-150 202.25,-156 202.25,-156 202.25,-168 202.25,-168 202.25,-174 196.25,-180 190.25,-180"/>
<text text-anchor="middle" x="151.87" y="-158.88" font-family="sans" font-size="10.00">create_dictionary</text>
</g>
<!-- 8&#45;&gt;0 -->
<g id="edge2" class="edge">
<title>8&#45;&gt;0</title>
<path fill="none" stroke="grey" stroke-width="2" d="M176,-143.16C187.79,-133.62 201.62,-121.15 211.87,-108 225.96,-89.92 237.74,-66.87 245.85,-48.75"/>
<polygon fill="grey" stroke="grey" stroke-width="2" points="249.03,-50.2 249.77,-39.63 242.6,-47.43 249.03,-50.2"/>
</g>
<!-- 8&#45;&gt;1 -->
<g id="edge5" class="edge">
<title>8&#45;&gt;1</title>
<path fill="none" stroke="grey" stroke-width="2" d="M151.87,-143.34C151.87,-136.75 151.87,-129.08 151.87,-121.67"/>
<polygon fill="grey" stroke="grey" stroke-width="2" points="155.37,-121.93 151.87,-111.93 148.37,-121.93 155.37,-121.93"/>
</g>
<!-- 9 -->
<g id="node10" class="node">
<title>9</title>
<path fill="none" stroke="#68d856" stroke-width="2" d="M234.12,-324C234.12,-324 201.62,-324 201.62,-324 195.62,-324 189.62,-318 189.62,-312 189.62,-312 189.62,-300 189.62,-300 189.62,-294 195.62,-288 201.62,-288 201.62,-288 234.12,-288 234.12,-288 240.12,-288 246.12,-294 246.12,-300 246.12,-300 246.12,-312 246.12,-312 246.12,-318 240.12,-324 234.12,-324"/>
<text text-anchor="middle" x="217.87" y="-302.88" font-family="sans" font-size="10.00">collapse</text>
</g>
<!-- 9&#45;&gt;0 -->
<g id="edge3" class="edge">
<title>9&#45;&gt;0</title>
<path fill="none" stroke="grey" stroke-width="2" d="M244.41,-287.01C255.4,-277.94 266.96,-265.91 272.87,-252 301.74,-184.09 281.97,-94.95 268.13,-49.11"/>
<polygon fill="grey" stroke="grey" stroke-width="2" points="271.53,-48.23 265.17,-39.75 264.85,-50.34 271.53,-48.23"/>
</g>
<!-- 9&#45;&gt;8 -->
<g id="edge14" class="edge">
<title>9&#45;&gt;8</title>
<path fill="none" stroke="grey" stroke-width="2" d="M192.68,-287.13C181.68,-277.93 169.75,-265.76 162.87,-252 153.87,-234 151.16,-211.49 150.67,-193.61"/>
<polygon fill="grey" stroke="grey" stroke-width="2" points="154.17,-193.74 150.68,-183.74 147.17,-193.74 154.17,-193.74"/>
</g>
<!-- 16 -->
<g id="node17" class="node">
<title>16</title>
<path fill="none" stroke="#56d882" stroke-width="2" d="M251.75,-252C251.75,-252 184,-252 184,-252 178,-252 172,-246 172,-240 172,-240 172,-228 172,-228 172,-222 178,-216 184,-216 184,-216 251.75,-216 251.75,-216 257.75,-216 263.75,-222 263.75,-228 263.75,-228 263.75,-240 263.75,-240 263.75,-246 257.75,-252 251.75,-252"/>
<text text-anchor="middle" x="217.87" y="-230.88" font-family="sans" font-size="10.00">pigeon_process</text>
</g>
<!-- 9&#45;&gt;16 -->
<g id="edge22" class="edge">
<title>9&#45;&gt;16</title>
<path fill="none" stroke="grey" stroke-width="2" d="M217.87,-287.34C217.87,-280.75 217.87,-273.08 217.87,-265.67"/>
<polygon fill="grey" stroke="grey" stroke-width="2" points="221.37,-265.93 217.87,-255.93 214.37,-265.93 221.37,-265.93"/>
</g>
<!-- 10 -->
<g id="node11" class="node">
<title>10</title>
<path fill="none" stroke="#56b1d8" stroke-width="2" d="M258.87,-396C258.87,-396 176.87,-396 176.87,-396 170.87,-396 164.87,-390 164.87,-384 164.87,-384 164.87,-372 164.87,-372 164.87,-366 170.87,-360 176.87,-360 176.87,-360 258.87,-360 258.87,-360 264.87,-360 270.87,-366 270.87,-372 270.87,-372 270.87,-384 270.87,-384 270.87,-390 264.87,-396 258.87,-396"/>
<text text-anchor="middle" x="217.87" y="-374.88" font-family="sans" font-size="10.00">merge_all_aligned</text>
</g>
<!-- 10&#45;&gt;9 -->
<g id="edge15" class="edge">
<title>10&#45;&gt;9</title>
<path fill="none" stroke="grey" stroke-width="2" d="M217.87,-359.34C217.87,-352.75 217.87,-345.08 217.87,-337.67"/>
<polygon fill="grey" stroke="grey" stroke-width="2" points="221.37,-337.93 217.87,-327.93 214.37,-337.93 221.37,-337.93"/>
</g>
<!-- 11 -->
<g id="node12" class="node">
<title>11</title>
<path fill="none" stroke="#56d8c1" stroke-width="2" d="M253.37,-468C253.37,-468 180.37,-468 180.37,-468 174.37,-468 168.37,-462 168.37,-456 168.37,-456 168.37,-444 168.37,-444 168.37,-438 174.37,-432 180.37,-432 180.37,-432 253.37,-432 253.37,-432 259.37,-432 265.37,-438 265.37,-444 265.37,-444 265.37,-456 265.37,-456 265.37,-462 259.37,-468 253.37,-468"/>
<text text-anchor="middle" x="216.87" y="-446.88" font-family="sans" font-size="10.00">label_transcripts</text>
</g>
<!-- 11&#45;&gt;10 -->
<g id="edge16" class="edge">
<title>11&#45;&gt;10</title>
<path fill="none" stroke="grey" stroke-width="2" d="M217.12,-431.34C217.22,-424.75 217.33,-417.08 217.43,-409.67"/>
<polygon fill="grey" stroke="grey" stroke-width="2" points="220.93,-409.98 217.57,-399.93 213.93,-409.88 220.93,-409.98"/>
</g>
<!-- 12 -->
<g id="node13" class="node">
<title>12</title>
<path fill="none" stroke="#5692d8" stroke-width="2" d="M227.87,-540C227.87,-540 197.87,-540 197.87,-540 191.87,-540 185.87,-534 185.87,-528 185.87,-528 185.87,-516 185.87,-516 185.87,-510 191.87,-504 197.87,-504 197.87,-504 227.87,-504 227.87,-504 233.87,-504 239.87,-510 239.87,-516 239.87,-516 239.87,-528 239.87,-528 239.87,-534 233.87,-540 227.87,-540"/>
<text text-anchor="middle" x="212.87" y="-518.88" font-family="sans" font-size="10.00">align</text>
</g>
<!-- 12&#45;&gt;11 -->
<g id="edge17" class="edge">
<title>12&#45;&gt;11</title>
<path fill="none" stroke="grey" stroke-width="2" d="M213.88,-503.34C214.26,-496.75 214.69,-489.08 215.12,-481.67"/>
<polygon fill="grey" stroke="grey" stroke-width="2" points="218.6,-482.11 215.67,-471.92 211.61,-481.71 218.6,-482.11"/>
</g>
<!-- 13 -->
<g id="node14" class="node">
<title>13</title>
<path fill="none" stroke="#88d856" stroke-width="2" d="M226.87,-612C226.87,-612 196.87,-612 196.87,-612 190.87,-612 184.87,-606 184.87,-600 184.87,-600 184.87,-588 184.87,-588 184.87,-582 190.87,-576 196.87,-576 196.87,-576 226.87,-576 226.87,-576 232.87,-576 238.87,-582 238.87,-588 238.87,-588 238.87,-600 238.87,-600 238.87,-606 232.87,-612 226.87,-612"/>
<text text-anchor="middle" x="211.87" y="-590.88" font-family="sans" font-size="10.00">cluster</text>
</g>
<!-- 13&#45;&gt;12 -->
<g id="edge18" class="edge">
<title>13&#45;&gt;12</title>
<path fill="none" stroke="grey" stroke-width="2" d="M212.12,-575.34C212.22,-568.75 212.33,-561.08 212.43,-553.67"/>
<polygon fill="grey" stroke="grey" stroke-width="2" points="215.93,-553.98 212.57,-543.93 208.93,-553.88 215.93,-553.98"/>
</g>
<!-- 14&#45;&gt;13 -->
<g id="edge19" class="edge">
<title>14&#45;&gt;13</title>
<path fill="none" stroke="grey" stroke-width="2" d="M210.37,-647.34C210.56,-640.75 210.78,-633.08 210.99,-625.67"/>
<polygon fill="grey" stroke="grey" stroke-width="2" points="214.49,-626.02 211.27,-615.93 207.49,-625.82 214.49,-626.02"/>
</g>
<!-- 15&#45;&gt;8 -->
<g id="edge13" class="edge">
<title>15&#45;&gt;8</title>
<path fill="none" stroke="grey" stroke-width="2" d="M86.82,-215.34C96.74,-207.36 108.66,-197.77 119.57,-188.99"/>
<polygon fill="grey" stroke="grey" stroke-width="2" points="121.67,-191.8 127.26,-182.8 117.28,-186.34 121.67,-191.8"/>
</g>
<!-- 16&#45;&gt;0 -->
<g id="edge1" class="edge">
<title>16&#45;&gt;0</title>
<path fill="none" stroke="grey" stroke-width="2" d="M221.21,-215.12C228.04,-178.62 243.64,-95.13 252.12,-49.74"/>
<polygon fill="grey" stroke="grey" stroke-width="2" points="255.56,-50.43 253.95,-39.95 248.68,-49.14 255.56,-50.43"/>
</g>
<!-- 16&#45;&gt;8 -->
<g id="edge12" class="edge">
<title>16&#45;&gt;8</title>
<path fill="none" stroke="grey" stroke-width="2" d="M201.22,-215.34C194.08,-207.77 185.58,-198.75 177.66,-190.35"/>
<polygon fill="grey" stroke="grey" stroke-width="2" points="180.23,-187.98 170.83,-183.1 175.14,-192.78 180.23,-187.98"/>
</g>
</g>
</svg>
